<svg xmlns="http://www.w3.org/2000/svg" xmlns:xlink="http://www.w3.org/1999/xlink" width="37.281" height="37.281" viewBox="0 0 37.281 37.281"><defs><style>.a{fill:none;}.b{fill:#d6cfff;}.c{fill:#131c1f;}.d{clip-path:url(#a);}.e{fill:#3a2d7a;}.f{fill:#fff;}.g{fill:#daddf2;}</style><clipPath id="a"><circle class="a" cx="17.155" cy="17.155" r="17.155" transform="translate(167.739 225.216)"/></clipPath></defs><g transform="translate(-166.253 -223.73)"><circle class="b" cx="18.64" cy="18.64" r="18.64" transform="translate(166.253 223.73)"/><circle class="c" cx="17.155" cy="17.155" r="17.155" transform="translate(167.739 225.216)"/><g class="d"><path class="e" d="M201.6,255.327l-13.842,9.317h-6.151l-13.421-9.061,13.421-3.053h6.148Z"/><path class="f" d="M187.731,253.544h.025v-6.985h-6.149v6.985h.028a.779.779,0,0,0-.028.134c0,.817,1.377,1.479,3.076,1.479s3.076-.662,3.076-1.479A.779.779,0,0,0,187.731,253.544Z"/><path class="g" d="M181.607,250.318a5.405,5.405,0,0,0,3.076,1.041,5.217,5.217,0,0,0,3.073-1.08v-3.72h-6.149Z"/><path class="f" d="M184.683,254.792l-1.975,1.435.755,2.322H185.9l.755-2.322Z"/><path class="f" d="M187.37,267.162h-5.4l1.487-8.613h2.421Z"/><path class="f" d="M177.528,242.9l-.733-7.107a6.167,6.167,0,0,1,6.167-6.167H186.4a6.167,6.167,0,0,1,6.168,6.167l-.952,7.107c0,2.156-2.751,7.785-6.936,7.785S177.528,245.1,177.528,242.9Z"/><path class="f" d="M175.763,240.609c.153.986.643,2.5,1.52,2.78,1.13.364.789-.551.486-2.021-.224-1.092-.63-2.414-1.27-2.851C176.1,238.247,175.5,238.919,175.763,240.609Z"/><path class="f" d="M193.553,240.609c-.153.986-.643,2.5-1.52,2.78-1.13.364-.789-.551-.486-2.021.224-1.092.63-2.414,1.27-2.851C193.212,238.247,193.815,238.919,193.553,240.609Z"/><path class="e" d="M192.8,236.311c.007-5.172-1.632-7.077-4.745-7.914l.6-1.276a4.471,4.471,0,0,0-2.088.984c-.246-.031-.49-.058-.716-.067v0c-7.93-.488-9.052,2.485-9.512,6.3a21.244,21.244,0,0,0,.525,6.78.7.7,0,0,0,.206-.139,1.285,1.285,0,0,0,1.2.843l.5-5.364,2.587-2.4c.718.93,2.6,2.016,7.423,2.3l-1.278-1.836,3.052,2.011.493,5.281a1.288,1.288,0,0,0,1.288-1.288v-.888a6.369,6.369,0,0,0,.362-.94A9.091,9.091,0,0,0,192.8,236.311Z"/></g></g></svg>