<svg xmlns="http://www.w3.org/2000/svg" xmlns:xlink="http://www.w3.org/1999/xlink" width="109.757" height="169.019" viewBox="0 0 109.757 169.019"><defs><style>.a,.af,.p{fill:none;}.b{fill:#fff;}.c{fill:url(#a);}.d{fill:url(#b);}.e{fill:url(#c);}.f{fill:url(#d);}.g{fill:url(#e);}.h{fill:url(#f);}.i{fill:url(#g);}.j{fill:url(#h);}.k{fill:url(#i);}.l{fill:url(#j);}.m{fill:url(#k);}.n{fill:url(#l);}.o{fill:url(#m);}.p{stroke:#fff;stroke-linecap:round;stroke-linejoin:round;stroke-width:0.643px;}.q{fill:url(#n);}.r{fill:url(#o);}.s{fill:url(#p);}.t{fill:url(#q);}.u{fill:url(#r);}.v{fill:url(#s);}.w{fill:url(#t);}.x{fill:url(#u);}.y{fill:url(#v);}.z{fill:url(#w);}.aa{fill:url(#x);}.ab{fill:url(#y);}.ac{fill:url(#z);}.ad{fill:#8e8dff;}.ae,.ag{fill:#d6cfff;}.ae{font-size:31px;font-family:Okomito-Medium, Okomito;font-weight:500;}.af{stroke:#d6cfff;stroke-miterlimit:10;stroke-width:1.06px;}.ah{fill:#131c1f;}.ai{clip-path:url(#aa);}.aj{fill:#3a2d7a;}.ak{fill:#daddf2;}</style><radialGradient id="a" cx="-16.103" cy="-6.74" r="13.315" gradientTransform="translate(-0.808) scale(2.617 1)" gradientUnits="objectBoundingBox"><stop offset="0" stop-color="#621ffa"/><stop offset="1" stop-color="#1e155a"/></radialGradient><radialGradient id="b" cx="-5.138" cy="-7.517" r="10.542" gradientTransform="translate(-0.311) scale(1.621 1)" xlink:href="#a"/><radialGradient id="c" cx="-3.142" cy="-59.849" r="75.289" gradientTransform="translate(0.44) scale(0.12 1)" xlink:href="#a"/><radialGradient id="d" cx="-2.808" cy="-7.137" r="8.932" gradientTransform="matrix(1.915, 0.079, -0.152, 0.997, 2.92, 0.347)" xlink:href="#a"/><radialGradient id="e" cx="-1.67" cy="-40.901" r="45.625" gradientTransform="matrix(0.175, 0.079, -0.014, 0.997, -2.856, 0.04)" xlink:href="#a"/><radialGradient id="f" cx="0.614" cy="-6.583" r="7.508" gradientTransform="matrix(2.522, 0.197, -0.508, 0.98, 3.806, 1.039)" xlink:href="#a"/><radialGradient id="g" cx="-0.027" cy="-24.521" r="24.676" gradientTransform="matrix(0.287, 0.197, -0.058, 0.98, -4.305, -0.295)" xlink:href="#a"/><radialGradient id="h" cx="21.974" cy="-6.465" r="7.145" gradientTransform="matrix(7.067, 0.448, -3.54, 0.894, 193.788, 17.176)" xlink:href="#a"/><radialGradient id="i" cx="3.084" cy="-14.024" r="13.627" gradientTransform="matrix(0.521, 0.448, -0.261, 0.894, -12.515, -1.212)" xlink:href="#a"/><radialGradient id="j" cx="-6.048" cy="-7.869" r="12.262" gradientTransform="translate(-0.202) scale(1.404 1)" xlink:href="#a"/><radialGradient id="k" cx="-4.029" cy="-53.931" r="75.945" gradientTransform="translate(0.433) scale(0.134 1)" xlink:href="#a"/><radialGradient id="l" cx="-7.081" cy="-8.258" r="14.473" gradientTransform="translate(-0.119) scale(1.237 1)" xlink:href="#a"/><radialGradient id="m" cx="-5.072" cy="-44.175" r="70.623" gradientTransform="translate(0.418) scale(0.164 1)" xlink:href="#a"/><radialGradient id="n" cx="17.103" cy="-6.74" r="13.315" gradientTransform="matrix(-2.617, 0, 0, 1, -1187.956, 0)" xlink:href="#a"/><radialGradient id="o" cx="6.138" cy="-7.517" r="10.542" gradientTransform="matrix(-1.621, 0, 0, 1, -428.342, 0)" xlink:href="#a"/><radialGradient id="p" cx="4.142" cy="-59.849" r="75.289" gradientTransform="matrix(-0.12, 0, 0, 1, -96.049, 0)" xlink:href="#a"/><radialGradient id="q" cx="3.808" cy="-7.137" r="8.932" gradientTransform="matrix(-1.915, 0.079, 0.152, 0.997, -481.748, 13.109)" xlink:href="#a"/><radialGradient id="r" cx="2.67" cy="-40.901" r="45.625" gradientTransform="matrix(-0.175, 0.079, 0.014, 0.997, -89.78, 6.03)" xlink:href="#a"/><radialGradient id="s" cx="0.386" cy="-6.583" r="7.508" gradientTransform="matrix(-2.522, 0.197, 0.508, 0.98, -660.901, 37.005)" xlink:href="#a"/><radialGradient id="t" cx="1.027" cy="-24.521" r="24.676" gradientTransform="matrix(-0.287, 0.197, 0.058, 0.98, -89.415, 13.851)" xlink:href="#a"/><radialGradient id="u" cx="-20.974" cy="-6.465" r="7.145" gradientTransform="matrix(-7.067, 0.448, 3.54, 0.894, -4324.033, 238.551)" xlink:href="#a"/><radialGradient id="v" cx="-2.084" cy="-14.024" r="13.627" gradientTransform="matrix(-0.521, 0.448, 0.261, 0.894, -119.802, 36.156)" xlink:href="#a"/><radialGradient id="w" cx="7.048" cy="-7.869" r="12.262" gradientTransform="matrix(-1.404, 0, 0, 1, -393.491, 0)" xlink:href="#a"/><radialGradient id="x" cx="5.029" cy="-53.931" r="75.945" gradientTransform="matrix(-0.134, 0, 0, 1, -108.359, 0)" xlink:href="#a"/><radialGradient id="y" cx="8.081" cy="-8.258" r="14.473" gradientTransform="matrix(-1.237, 0, 0, 1, -379.148, 0)" xlink:href="#a"/><radialGradient id="z" cx="6.072" cy="-44.175" r="70.623" gradientTransform="matrix(-0.164, 0, 0, 1, -126.281, 0)" xlink:href="#a"/><clipPath id="aa"><circle class="a" cx="40.856" cy="40.856" r="40.856" transform="translate(0 79.491) rotate(-76.613)"/></clipPath></defs><g transform="translate(0 107.971)"><g transform="translate(83.727 0)"><g transform="translate(20.692)"><path class="b" d="M358.881,129.837a4.341,4.341,0,0,1,.409,1.9,5.464,5.464,0,0,1-.291,1.727,5.738,5.738,0,0,1-.806,1.556,4.524,4.524,0,0,1-1.449,1.293,5.189,5.189,0,0,1-.252-1.9,6.411,6.411,0,0,1,.309-1.668,6.031,6.031,0,0,1,.736-1.529A5.055,5.055,0,0,1,358.881,129.837Z" transform="translate(-356.488 -129.837)"/><g transform="translate(0.067 3.053)"><path class="c" d="M357.905,131.181c-.141.588-.293,1.177-.452,1.763-.184.577-.375,1.152-.577,1.724a.2.2,0,0,1-.241.136.194.194,0,0,1-.1-.254l0-.011q.348-.835.67-1.681Q357.567,132.026,357.905,131.181Z" transform="translate(-356.517 -131.181)"/></g></g><g transform="translate(11.401 10.741)"><path class="b" d="M352.4,134.565a5.289,5.289,0,0,1,1.838,1.043,6.348,6.348,0,0,1,1.263,1.463,6.721,6.721,0,0,1,.8,1.806,5.6,5.6,0,0,1,.157,2.254,5.1,5.1,0,0,1-1.768-1.154,7.658,7.658,0,0,1-1.2-1.522,7.932,7.932,0,0,1-.8-1.774A6.134,6.134,0,0,1,352.4,134.565Z" transform="translate(-352.398 -134.565)"/><g transform="translate(1.543 2.311)"><path class="d" d="M353.077,135.582q1.445,1.983,2.783,4.076a.342.342,0,0,1-.1.445.281.281,0,0,1-.416-.057l-.016-.032Q354.274,137.738,353.077,135.582Z" transform="translate(-353.077 -135.582)"/></g><g transform="translate(3.778 5.473)"><g transform="translate(0.32)"><path class="b" d="M362.108,138.292a6.012,6.012,0,0,1-2.172,1.093,6.416,6.416,0,0,1-2.036.227,6.319,6.319,0,0,1-1.92-.388,4.9,4.9,0,0,1-1.779-1.134,7.065,7.065,0,0,1,2.115-.879,8.44,8.44,0,0,1,2.008-.236,6.716,6.716,0,0,1,1.942.277A4.448,4.448,0,0,1,362.108,138.292Z" transform="translate(-354.202 -136.974)"/></g><g transform="translate(0 0.8)"><path class="e" d="M359.4,137.862q-2.556.14-5.071.1a.275.275,0,0,1-.264-.32.349.349,0,0,1,.336-.311l.034,0Q356.894,137.666,359.4,137.862Z" transform="translate(-354.061 -137.326)"/></g></g></g><g transform="translate(8.053 13.377)"><path class="b" d="M350.975,135.725a6.061,6.061,0,0,1,1.988,1.345,7.278,7.278,0,0,1,1.3,1.77,7.6,7.6,0,0,1,.741,2.115,6.338,6.338,0,0,1-.027,2.563,5.8,5.8,0,0,1-1.892-1.463,8.8,8.8,0,0,1-1.218-1.831,9.013,9.013,0,0,1-.745-2.079A6.991,6.991,0,0,1,350.975,135.725Z" transform="translate(-350.925 -135.725)"/><g transform="translate(1.582 2.754)"><path class="f" d="M351.621,136.937q1.455,2.372,2.781,4.86a.389.389,0,0,1-.152.5.316.316,0,0,1-.464-.1l-.016-.036Q352.782,139.482,351.621,136.937Z" transform="translate(-351.621 -136.937)"/></g><g transform="translate(3.722 6.898)"><g transform="translate(0.364)"><path class="b" d="M361.649,140.626a6.855,6.855,0,0,1-2.554,1.038,7.256,7.256,0,0,1-2.324.075,7.18,7.18,0,0,1-2.138-.611,5.63,5.63,0,0,1-1.911-1.443,8.032,8.032,0,0,1,2.472-.8,9.438,9.438,0,0,1,2.295-.086,7.626,7.626,0,0,1,2.172.488A5.007,5.007,0,0,1,361.649,140.626Z" transform="translate(-352.723 -138.761)"/></g><g transform="translate(0 0.566)"><path class="g" d="M358.584,140.07q-2.907-.075-5.748-.35a.31.31,0,0,1-.266-.386.4.4,0,0,1,.407-.323l.039.007Q355.766,139.622,358.584,140.07Z" transform="translate(-352.563 -139.01)"/></g></g></g><g transform="translate(4.104 15.949)"><path class="b" d="M349.4,136.857a6.8,6.8,0,0,1,2.058,1.783,8.252,8.252,0,0,1,1.222,2.172,8.576,8.576,0,0,1,.55,2.488,7.2,7.2,0,0,1-.377,2.885,6.578,6.578,0,0,1-1.938-1.906,10.031,10.031,0,0,1-1.125-2.231,10.241,10.241,0,0,1-.559-2.445A7.88,7.88,0,0,1,349.4,136.857Z" transform="translate(-349.186 -136.857)"/><g transform="translate(1.57 3.31)"><path class="h" d="M349.877,138.314q1.319,2.876,2.479,5.859a.442.442,0,0,1-.236.538.358.358,0,0,1-.509-.177l-.014-.043Q350.84,141.342,349.877,138.314Z" transform="translate(-349.877 -138.314)"/></g><g transform="translate(3.29 8.786)"><g transform="translate(0.42)"><path class="b" d="M360.759,143.572a7.783,7.783,0,0,1-3.022.829,8.264,8.264,0,0,1-2.631-.232,8.129,8.129,0,0,1-2.326-.979,6.346,6.346,0,0,1-1.961-1.883,9.125,9.125,0,0,1,2.9-.575,10.729,10.729,0,0,1,2.6.214,8.62,8.62,0,0,1,2.383.843A5.728,5.728,0,0,1,360.759,143.572Z" transform="translate(-350.819 -140.724)"/></g><g transform="translate(0 0.177)"><path class="i" d="M357.338,142.762q-3.265-.477-6.434-1.17a.354.354,0,0,1-.25-.473.453.453,0,0,1,.5-.309l.043.011Q354.221,141.878,357.338,142.762Z" transform="translate(-350.634 -140.802)"/></g></g></g><g transform="translate(0 19.454)"><path class="b" d="M348.4,138.4a6.811,6.811,0,0,1,1.518,2.263,8.228,8.228,0,0,1,.611,2.415,8.7,8.7,0,0,1-.125,2.545,7.241,7.241,0,0,1-1.122,2.688,6.652,6.652,0,0,1-1.368-2.349,10.016,10.016,0,0,1-.5-2.447,10.249,10.249,0,0,1,.1-2.508A7.87,7.87,0,0,1,348.4,138.4Z" transform="translate(-347.38 -138.4)"/><g transform="translate(1.457 3.551)"><path class="j" d="M348.021,139.963q.518,3.118.854,6.3a.441.441,0,0,1-.37.457.361.361,0,0,1-.445-.3v-.045Q348.155,143.14,348.021,139.963Z" transform="translate(-348.021 -139.963)"/></g><g transform="translate(1.502 9.56)"><g transform="translate(0.429 0.354)"><path class="b" d="M357.227,147.6a7.756,7.756,0,0,1-3.133.007,8.29,8.29,0,0,1-2.479-.913,8.054,8.054,0,0,1-1.988-1.556,6.348,6.348,0,0,1-1.4-2.333,9.068,9.068,0,0,1,2.947.207,10.8,10.8,0,0,1,2.451.888,8.659,8.659,0,0,1,2.079,1.44A5.716,5.716,0,0,1,357.227,147.6Z" transform="translate(-348.23 -142.764)"/></g><path class="k" d="M354.127,146.157q-3.03-1.319-5.9-2.819a.352.352,0,0,1-.116-.52.447.447,0,0,1,.566-.166l.039.023Q351.351,144.484,354.127,146.157Z" transform="translate(-348.041 -142.608)"/></g></g><g transform="translate(13.899 7.643)"><path class="b" d="M353.5,133.2a4.473,4.473,0,0,1,1.772.743,5.108,5.108,0,0,1,1.229,1.2,5.473,5.473,0,0,1,.8,1.572,4.862,4.862,0,0,1,.2,2.054,4.267,4.267,0,0,1-1.724-.838,5.977,5.977,0,0,1-1.179-1.254,6.143,6.143,0,0,1-.793-1.543A5.139,5.139,0,0,1,353.5,133.2Z" transform="translate(-353.498 -133.201)"/><g transform="translate(1.5 1.963)"><path class="l" d="M354.158,134.065q1.414,1.66,2.749,3.408a.341.341,0,0,1-.061.452.279.279,0,0,1-.418-.02l-.02-.034Q355.334,135.914,354.158,134.065Z" transform="translate(-354.158 -134.065)"/></g><g transform="translate(3.715 4.184)"><g transform="translate(0.318)"><path class="b" d="M362.273,136.147a5.338,5.338,0,0,1-3.644,1.556,5.107,5.107,0,0,1-1.72-.257,4.212,4.212,0,0,1-1.636-1,6.007,6.007,0,0,1,1.822-1.027,6.663,6.663,0,0,1,1.761-.364,5.261,5.261,0,0,1,1.733.159A3.808,3.808,0,0,1,362.273,136.147Z" transform="translate(-355.273 -135.043)"/></g><g transform="translate(0 1.086)"><path class="m" d="M359.9,135.721q-2.249.293-4.48.436a.273.273,0,0,1-.286-.3.35.35,0,0,1,.309-.339h.039Q357.675,135.678,359.9,135.721Z" transform="translate(-355.133 -135.521)"/></g></g></g><g transform="translate(16.117 4.532)"><path class="b" d="M354.481,131.832a3.77,3.77,0,0,1,1.674.463,3.938,3.938,0,0,1,1.161.956,4.321,4.321,0,0,1,.761,1.349,4.254,4.254,0,0,1,.2,1.865,3.594,3.594,0,0,1-1.647-.538,4.554,4.554,0,0,1-1.127-1,4.659,4.659,0,0,1-.752-1.327A4.347,4.347,0,0,1,354.481,131.832Z" transform="translate(-354.474 -131.832)"/><g transform="translate(1.418 1.633)"><path class="n" d="M355.1,132.551q1.336,1.36,2.626,2.785a.34.34,0,0,1-.027.454.279.279,0,0,1-.418.014l-.027-.036Q356.213,134.119,355.1,132.551Z" transform="translate(-355.098 -132.551)"/></g><g transform="translate(3.519 3.024)"><g transform="translate(0.319)"><path class="b" d="M362.238,134.128a4.527,4.527,0,0,1-1.547,1.277,4.078,4.078,0,0,1-1.534.441,3.97,3.97,0,0,1-1.511-.159,3.589,3.589,0,0,1-1.484-.9A5.075,5.075,0,0,1,359.2,133.2a4.029,4.029,0,0,1,1.518.077A3.237,3.237,0,0,1,362.238,134.128Z" transform="translate(-356.163 -133.163)"/></g><g transform="translate(0 1.263)"><path class="o" d="M360.208,133.719q-1.942.4-3.876.682a.271.271,0,0,1-.309-.273.351.351,0,0,1,.279-.363l.045,0Q358.27,133.783,360.208,133.719Z" transform="translate(-356.023 -133.719)"/></g></g></g><path class="p" d="M367.842,132.776s-3.665,14.276-20.136,23.337" transform="translate(-346.965 -126.099)"/></g><g transform="translate(0 0)"><g transform="translate(2.535)"><path class="b" d="M312.051,129.837a4.341,4.341,0,0,0-.409,1.9,5.465,5.465,0,0,0,.291,1.727,5.739,5.739,0,0,0,.807,1.556,4.523,4.523,0,0,0,1.45,1.293,5.191,5.191,0,0,0,.252-1.9,6.407,6.407,0,0,0-.309-1.668,6.028,6.028,0,0,0-.736-1.529A5.053,5.053,0,0,0,312.051,129.837Z" transform="translate(-311.642 -129.837)"/><g transform="translate(1.347 3.053)"><path class="q" d="M312.235,131.181c.141.588.293,1.177.452,1.763.184.577.375,1.152.577,1.724a.2.2,0,0,0,.241.136.194.194,0,0,0,.1-.254l0-.011q-.348-.835-.67-1.681Q312.574,132.026,312.235,131.181Z" transform="translate(-312.235 -131.181)"/></g></g><g transform="translate(2.624 10.741)"><g transform="translate(7.633)"><g transform="translate(0.256)"><path class="b" d="M319.262,134.565a5.289,5.289,0,0,0-1.838,1.043,6.349,6.349,0,0,0-1.263,1.463,6.722,6.722,0,0,0-.8,1.806,5.6,5.6,0,0,0-.157,2.254,5.1,5.1,0,0,0,1.767-1.154,7.651,7.651,0,0,0,1.2-1.522,7.931,7.931,0,0,0,.8-1.774A6.136,6.136,0,0,0,319.262,134.565Z" transform="translate(-315.154 -134.565)"/></g><g transform="translate(0 2.311)"><path class="r" d="M317.87,135.582q-1.445,1.983-2.783,4.076a.341.341,0,0,0,.1.445.281.281,0,0,0,.416-.057l.016-.032Q316.672,137.738,317.87,135.582Z" transform="translate(-315.041 -135.582)"/></g></g><g transform="translate(0 5.473)"><path class="b" d="M311.681,138.292a6.012,6.012,0,0,0,2.172,1.093,6.416,6.416,0,0,0,2.036.227,6.318,6.318,0,0,0,1.92-.388,4.9,4.9,0,0,0,1.779-1.134,7.065,7.065,0,0,0-2.115-.879,8.44,8.44,0,0,0-2.008-.236,6.715,6.715,0,0,0-1.942.277A4.448,4.448,0,0,0,311.681,138.292Z" transform="translate(-311.681 -136.974)"/><g transform="translate(2.89 0.8)"><path class="s" d="M312.953,137.862q2.556.14,5.071.1a.275.275,0,0,0,.264-.32.349.349,0,0,0-.336-.311l-.034,0Q315.457,137.666,312.953,137.862Z" transform="translate(-312.953 -137.326)"/></g></g></g><g transform="translate(4.964 13.377)"><g transform="translate(8.611)"><g transform="translate(0.208)"><path class="b" d="M320.735,135.725a6.063,6.063,0,0,0-1.988,1.345,7.277,7.277,0,0,0-1.295,1.77,7.6,7.6,0,0,0-.741,2.115,6.339,6.339,0,0,0,.027,2.563,5.8,5.8,0,0,0,1.892-1.463,8.8,8.8,0,0,0,1.218-1.831,9.014,9.014,0,0,0,.745-2.079A6.992,6.992,0,0,0,320.735,135.725Z" transform="translate(-316.593 -135.725)"/></g><g transform="translate(0 2.754)"><path class="t" d="M319.32,136.937q-1.455,2.372-2.781,4.86a.389.389,0,0,0,.152.5.315.315,0,0,0,.463-.1l.016-.036Q318.159,139.482,319.32,136.937Z" transform="translate(-316.501 -136.937)"/></g></g><g transform="translate(0 6.898)"><path class="b" d="M312.711,140.626a6.855,6.855,0,0,0,2.554,1.038,7.257,7.257,0,0,0,2.324.075,7.18,7.18,0,0,0,2.138-.611,5.63,5.63,0,0,0,1.911-1.443,8.033,8.033,0,0,0-2.472-.8,9.438,9.438,0,0,0-2.295-.086,7.624,7.624,0,0,0-2.172.488A5.007,5.007,0,0,0,312.711,140.626Z" transform="translate(-312.711 -138.761)"/><g transform="translate(3.269 0.566)"><path class="u" d="M314.15,140.07q2.907-.075,5.748-.35a.31.31,0,0,0,.266-.386.4.4,0,0,0-.407-.323l-.039.007Q316.968,139.622,314.15,140.07Z" transform="translate(-314.15 -139.01)"/></g></g></g><g transform="translate(8.276 15.949)"><g transform="translate(9.576)"><g transform="translate(0.015)"><path class="b" d="M322.234,136.857a6.8,6.8,0,0,0-2.058,1.783,8.251,8.251,0,0,0-1.222,2.172,8.572,8.572,0,0,0-.55,2.488,7.2,7.2,0,0,0,.377,2.885,6.578,6.578,0,0,0,1.938-1.906,10.034,10.034,0,0,0,1.125-2.231,10.244,10.244,0,0,0,.559-2.445A7.879,7.879,0,0,0,322.234,136.857Z" transform="translate(-318.39 -136.857)"/></g><g transform="translate(0 3.31)"><path class="v" d="M320.888,138.314q-1.319,2.876-2.479,5.859a.442.442,0,0,0,.236.538.358.358,0,0,0,.509-.177l.014-.043Q319.924,141.342,320.888,138.314Z" transform="translate(-318.384 -138.314)"/></g></g><g transform="translate(0 8.786)"><path class="b" d="M314.169,143.572a7.784,7.784,0,0,0,3.022.829,8.264,8.264,0,0,0,2.631-.232,8.13,8.13,0,0,0,2.326-.979,6.347,6.347,0,0,0,1.961-1.883,9.125,9.125,0,0,0-2.9-.575,10.729,10.729,0,0,0-2.6.214,8.62,8.62,0,0,0-2.383.843A5.728,5.728,0,0,0,314.169,143.572Z" transform="translate(-314.169 -140.724)"/><g transform="translate(3.655 0.177)"><path class="w" d="M315.778,142.762q3.265-.477,6.434-1.17a.354.354,0,0,0,.25-.473.453.453,0,0,0-.5-.309l-.043.011Q318.9,141.878,315.778,142.762Z" transform="translate(-315.778 -140.802)"/></g></g></g><g transform="translate(15.101 19.454)"><g transform="translate(7.738)"><path class="b" d="M322.749,138.4a6.811,6.811,0,0,0-1.518,2.263,8.229,8.229,0,0,0-.611,2.415,8.7,8.7,0,0,0,.125,2.545,7.241,7.241,0,0,0,1.122,2.688,6.616,6.616,0,0,0,1.368-2.349,10.013,10.013,0,0,0,.5-2.447,10.254,10.254,0,0,0-.1-2.508A7.873,7.873,0,0,0,322.749,138.4Z" transform="translate(-320.579 -138.4)"/><g transform="translate(0.878 3.551)"><path class="x" d="M321.821,139.963q-.518,3.118-.854,6.3a.441.441,0,0,0,.37.457.361.361,0,0,0,.445-.3v-.045Q321.687,143.14,321.821,139.963Z" transform="translate(-320.965 -139.963)"/></g></g><g transform="translate(0 9.56)"><g transform="translate(0 0.354)"><path class="b" d="M317.173,147.6a7.756,7.756,0,0,0,3.133.007,8.293,8.293,0,0,0,2.479-.913,8.054,8.054,0,0,0,1.988-1.556,6.347,6.347,0,0,0,1.4-2.333,9.067,9.067,0,0,0-2.947.207,10.8,10.8,0,0,0-2.451.888,8.659,8.659,0,0,0-2.079,1.44A5.718,5.718,0,0,0,317.173,147.6Z" transform="translate(-317.173 -142.764)"/></g><g transform="translate(3.34)"><path class="y" d="M318.643,146.157q3.03-1.319,5.9-2.819a.352.352,0,0,0,.116-.52.447.447,0,0,0-.566-.166l-.039.023Q321.419,144.484,318.643,146.157Z" transform="translate(-318.643 -142.608)"/></g></g></g><g transform="translate(1.097 7.643)"><g transform="translate(6.724)"><g transform="translate(0.274)"><path class="b" d="M318.119,133.2a4.472,4.472,0,0,0-1.772.743,5.108,5.108,0,0,0-1.229,1.2,5.472,5.472,0,0,0-.8,1.572,4.864,4.864,0,0,0-.2,2.054,4.268,4.268,0,0,0,1.724-.838,5.977,5.977,0,0,0,1.179-1.254,6.147,6.147,0,0,0,.793-1.543A5.139,5.139,0,0,0,318.119,133.2Z" transform="translate(-314.089 -133.201)"/></g><g transform="translate(0 1.963)"><path class="z" d="M316.778,134.065q-1.414,1.66-2.749,3.408a.341.341,0,0,0,.061.452.279.279,0,0,0,.418-.02l.02-.034Q315.6,135.914,316.778,134.065Z" transform="translate(-313.969 -134.065)"/></g></g><g transform="translate(0 4.184)"><path class="b" d="M311.009,136.147a5.338,5.338,0,0,0,3.644,1.556,5.107,5.107,0,0,0,1.72-.257,4.211,4.211,0,0,0,1.636-1,6.008,6.008,0,0,0-1.822-1.027,6.663,6.663,0,0,0-1.761-.364,5.261,5.261,0,0,0-1.733.159A3.808,3.808,0,0,0,311.009,136.147Z" transform="translate(-311.009 -135.043)"/><g transform="translate(2.551 1.086)"><path class="aa" d="M312.132,135.721q2.249.293,4.48.436a.273.273,0,0,0,.286-.3.35.35,0,0,0-.309-.339h-.039Q314.356,135.678,312.132,135.721Z" transform="translate(-312.132 -135.521)"/></g></g></g><g transform="translate(0 4.532)"><g transform="translate(5.794)"><g transform="translate(0.283)"><path class="b" d="M317.03,131.832a3.77,3.77,0,0,0-1.674.463,3.936,3.936,0,0,0-1.161.956,4.319,4.319,0,0,0-.761,1.349,4.251,4.251,0,0,0-.2,1.865,3.592,3.592,0,0,0,1.647-.538,4.554,4.554,0,0,0,1.127-1,4.657,4.657,0,0,0,.752-1.327A4.343,4.343,0,0,0,317.03,131.832Z" transform="translate(-313.201 -131.832)"/></g><g transform="translate(0 1.633)"><path class="ab" d="M315.777,132.551q-1.336,1.36-2.626,2.785a.339.339,0,0,0,.027.454.279.279,0,0,0,.418.014l.027-.036Q314.663,134.119,315.777,132.551Z" transform="translate(-313.076 -132.551)"/></g></g><g transform="translate(0 3.024)"><path class="b" d="M310.526,134.128a4.527,4.527,0,0,0,1.547,1.277,4.078,4.078,0,0,0,1.533.441,3.97,3.97,0,0,0,1.511-.159,3.588,3.588,0,0,0,1.484-.9,5.075,5.075,0,0,0-3.038-1.586,4.029,4.029,0,0,0-1.518.077A3.236,3.236,0,0,0,310.526,134.128Z" transform="translate(-310.526 -133.163)"/><g transform="translate(2.208 1.263)"><path class="ac" d="M311.5,133.719q1.942.4,3.876.682a.271.271,0,0,0,.309-.273.351.351,0,0,0-.279-.363l-.046,0Q313.436,133.783,311.5,133.719Z" transform="translate(-311.498 -133.719)"/></g></g></g><path class="p" d="M312.794,132.776s3.664,14.276,20.136,23.337" transform="translate(-307.641 -126.099)"/></g></g><g transform="translate(42.407 136.818)"><path class="b" d="M349.774,144.807v-2.272h-16.71v2.272h-3.871v2.626a11.964,11.964,0,0,0,8.538,11.446,10.2,10.2,0,0,0,2.649,2.31l.268,6.216h0l-2.828,4.878h0a1.1,1.1,0,0,0-1.1,1.1v1.349h9.41v-1.349a1.1,1.1,0,0,0-1.1-1.1h0l-2.828-4.878h0l.27-6.216a10.387,10.387,0,0,0,2.758-2.44,11.966,11.966,0,0,0,8.126-11.316v-2.626Zm-19.765,2.626v-1.811h3.056v.643a15.155,15.155,0,0,0,.523,3.951,24.42,24.42,0,0,0,3.246,7.477A11.141,11.141,0,0,1,330.009,147.433Zm22.519,0a11.141,11.141,0,0,1-6.4,10.069,24.78,24.78,0,0,0,3.117-7.286,15.062,15.062,0,0,0,.525-3.951v-.643h2.754Z" transform="translate(-329.193 -142.535)"/><path class="ad" d="M336.1,153l.1-2.251h-2.079l.1,2.251Z" transform="translate(-322.931 -132.092)"/><rect class="ad" width="16.709" height="0.941" transform="translate(3.871 2.189)"/><rect class="ad" width="16.709" height="0.628" transform="translate(3.871 3.535)"/><path class="ad" d="M.262,0h10.38A.262.262,0,0,1,10.9.262V1.269a0,0,0,0,1,0,0H0a0,0,0,0,1,0,0V.262A.262.262,0,0,1,.262,0Z" transform="translate(6.624 30.933)"/><path class="ad" d="M336.73,144.889l.937,2.883H340.7l-2.453,1.782.937,2.883-2.452-1.782-2.453,1.782.937-2.883-2.453-1.782h3.032Z" transform="translate(-324.654 -139.541)"/></g><text class="ae" transform="translate(36.135 31)"><tspan x="0" y="0">#3</tspan></text><g transform="translate(1.012 28.447)"><path class="af" d="M345.379,98.825a50.9,50.9,0,0,1,24.609,56.695" transform="translate(-267.209 -89.759)"/><path class="af" d="M313.808,156.164a50.89,50.89,0,0,1,24.434-57.336" transform="translate(-309.476 -89.755)"/><circle class="ag" cx="44.395" cy="44.395" r="44.395" transform="matrix(0.232, -0.973, 0.973, 0.232, 0, 86.373)"/><circle class="ah" cx="40.856" cy="40.856" r="40.856" transform="translate(4.267 83.759) rotate(-76.613)"/><g transform="translate(4.267 4.267)"><g class="ai" transform="translate(0 0)"><g transform="translate(9.415 12.887)"><g transform="translate(0 46.292)"><path class="aj" d="M396.574,135.681l-32.967,22.189h-14.65l-31.964-21.579,31.964-7.27H363.6Z" transform="translate(-316.994 -114.799)"/><g transform="translate(31.963)"><path class="b" d="M345.646,139.4h.061V122.761H331.063V139.4h.068a1.733,1.733,0,0,0-.068.318c0,1.947,3.281,3.524,7.327,3.524s7.325-1.577,7.325-3.524A1.726,1.726,0,0,0,345.646,139.4Z" transform="translate(-331.063 -122.761)"/><path class="ak" d="M331.063,131.715a12.886,12.886,0,0,0,7.327,2.479,12.427,12.427,0,0,0,7.318-2.572v-8.86H331.063Z" transform="translate(-331.063 -122.761)"/></g><g transform="translate(32.839 19.61)"><path class="b" d="M336.922,131.393l-4.7,3.418,1.8,5.531h5.815l1.8-5.531Z" transform="translate(-330.471 -131.393)"/><path class="b" d="M344.3,155.844h-12.85l3.542-20.512h5.765Z" transform="translate(-331.448 -126.383)"/></g></g><g transform="translate(17.893)"><path class="b" d="M327.764,136.624,326.019,119.7a14.686,14.686,0,0,1,14.688-14.688H348.9A14.686,14.686,0,0,1,363.589,119.7l-2.265,16.926c0,5.134-6.554,18.541-16.519,18.541C334.8,155.165,327.764,141.865,327.764,136.624Z" transform="translate(-323.408 -99.045)"/><path class="b" d="M325.022,119.39c.363,2.349,1.529,5.948,3.619,6.62,2.692.868,1.879-1.311,1.159-4.812-.534-2.6-1.5-5.75-3.024-6.791C325.836,113.765,324.4,115.365,325.022,119.39Z" transform="translate(-324.87 -87.268)"/><path class="b" d="M346.655,119.39c-.366,2.349-1.531,5.948-3.621,6.62-2.69.868-1.877-1.311-1.156-4.812.534-2.6,1.5-5.75,3.024-6.791C345.841,113.765,347.28,115.365,346.655,119.39Z" transform="translate(-304.134 -87.268)"/><path class="aj" d="M364.87,124.27c.018-12.316-3.885-16.855-11.3-18.848L355,102.385a10.621,10.621,0,0,0-4.973,2.342c-.586-.073-1.168-.139-1.7-.161l0,0c-18.886-1.159-21.56,5.921-22.655,15.015-.929,7.713,1.252,16.149,1.252,16.149a1.622,1.622,0,0,0,.488-.332,3.064,3.064,0,0,0,2.869,2.006l1.191-12.772,6.164-5.707c1.708,2.215,6.193,4.8,17.678,5.487l-3.044-4.371,7.27,4.787,1.175,12.577a3.066,3.066,0,0,0,3.067-3.067v-2.115a14.7,14.7,0,0,0,.861-2.238C365.131,128.275,364.868,126.31,364.87,124.27Z" transform="translate(-324.153 -102.385)"/></g></g></g></g></g></svg>