<svg xmlns="http://www.w3.org/2000/svg" xmlns:xlink="http://www.w3.org/1999/xlink" width="154.924" height="228.658" viewBox="0 0 154.924 228.658"><defs><style>.a,.c,.d,.k,.l{fill:none;}.b,.m{fill:#37c673;}.c,.d{stroke:#37c673;}.c{stroke-linecap:round;stroke-linejoin:round;stroke-width:0.907px;}.d,.k,.l{stroke-miterlimit:10;}.d{stroke-width:1.5px;}.e{fill:#131c1f;}.f{clip-path:url(#a);}.g{fill:#3a2d7a;}.h{fill:#fff;}.i{fill:#daddf2;}.j{fill:#126434;}.k,.l{stroke:#126434;}.k{stroke-width:0.584px;}.l{stroke-width:0.39px;}.m{font-size:43px;font-family:Okomito-Medium, Okomito;font-weight:500;}</style><clipPath id="a"><circle class="a" cx="57.819" cy="57.819" r="57.819" transform="translate(0 44.948) rotate(-22.873)"/></clipPath></defs><g transform="translate(0 142.481)"><g transform="translate(118.184)"><g transform="translate(29.207)"><path class="b" d="M285.4,133.636a6.167,6.167,0,0,1,.572,2.685,7.651,7.651,0,0,1-.409,2.438,8.1,8.1,0,0,1-1.136,2.195,6.4,6.4,0,0,1-2.047,1.824,7.32,7.32,0,0,1-.357-2.681,9.221,9.221,0,0,1,.434-2.354,8.58,8.58,0,0,1,1.041-2.158A7.107,7.107,0,0,1,285.4,133.636Z" transform="translate(-282.017 -133.636)"/><g transform="translate(0.094 4.31)"><path class="b" d="M284.018,135.533q-.3,1.247-.636,2.49-.392,1.223-.816,2.433a.28.28,0,0,1-.341.193.271.271,0,0,1-.148-.357l0-.018q.491-1.179.95-2.374Q283.54,136.728,284.018,135.533Z" transform="translate(-282.059 -135.533)"/></g></g><g transform="translate(16.091 15.163)"><path class="b" d="M276.253,140.31a7.459,7.459,0,0,1,2.6,1.472,8.9,8.9,0,0,1,1.781,2.065,9.409,9.409,0,0,1,1.127,2.551,7.949,7.949,0,0,1,.22,3.181,7.261,7.261,0,0,1-2.492-1.629A10.758,10.758,0,0,1,277.8,145.8a11.2,11.2,0,0,1-1.131-2.5A8.679,8.679,0,0,1,276.253,140.31Z" transform="translate(-276.244 -140.31)"/><g transform="translate(2.179 3.262)"><path class="b" d="M277.2,141.746q2.038,2.8,3.928,5.752a.483.483,0,0,1-.139.629.392.392,0,0,1-.584-.079l-.025-.043Q278.894,144.788,277.2,141.746Z" transform="translate(-277.203 -141.746)"/></g><g transform="translate(5.336 7.727)"><g transform="translate(0.451)"><path class="b" d="M289.951,145.57a8.532,8.532,0,0,1-3.065,1.543,9.119,9.119,0,0,1-2.874.323,8.925,8.925,0,0,1-2.71-.55,6.922,6.922,0,0,1-2.51-1.6,10.008,10.008,0,0,1,2.985-1.243,11.916,11.916,0,0,1,2.835-.332,9.5,9.5,0,0,1,2.74.391A6.277,6.277,0,0,1,289.951,145.57Z" transform="translate(-278.791 -143.711)"/></g><g transform="translate(0 1.127)"><path class="b" d="M286.125,144.966q-3.609.194-7.161.134a.384.384,0,0,1-.368-.452.49.49,0,0,1,.473-.441l.05,0Q282.588,144.689,286.125,144.966Z" transform="translate(-278.592 -144.207)"/></g></g></g><g transform="translate(11.368 18.884)"><path class="b" d="M274.238,141.948a8.517,8.517,0,0,1,2.8,1.9,10.247,10.247,0,0,1,1.829,2.5,10.714,10.714,0,0,1,1.045,2.985,8.962,8.962,0,0,1-.039,3.617,8.191,8.191,0,0,1-2.672-2.065,12.358,12.358,0,0,1-1.718-2.585,12.73,12.73,0,0,1-1.052-2.933A9.781,9.781,0,0,1,274.238,141.948Z" transform="translate(-274.165 -141.948)"/><g transform="translate(2.231 3.885)"><path class="b" d="M275.147,143.658q2.055,3.35,3.926,6.861a.544.544,0,0,1-.214.7.446.446,0,0,1-.654-.141l-.023-.052Q276.785,147.251,275.147,143.658Z" transform="translate(-275.147 -143.658)"/></g><g transform="translate(5.252 9.736)"><g transform="translate(0.517)"><path class="b" d="M289.3,148.863a9.679,9.679,0,0,1-3.606,1.47,10.348,10.348,0,0,1-3.281.1,10.123,10.123,0,0,1-3.015-.863,7.919,7.919,0,0,1-2.7-2.036,11.369,11.369,0,0,1,3.487-1.138,13.56,13.56,0,0,1,3.237-.12,10.819,10.819,0,0,1,3.067.688A7.137,7.137,0,0,1,289.3,148.863Z" transform="translate(-276.704 -146.233)"/></g><g transform="translate(0 0.799)"><path class="b" d="M284.977,148.082q-4.1-.106-8.113-.493a.44.44,0,0,1-.377-.548.561.561,0,0,1,.575-.454l.057.009Q281,147.448,284.977,148.082Z" transform="translate(-276.476 -146.585)"/></g></g></g><g transform="translate(5.792 22.512)"><path class="b" d="M272.014,143.545a9.614,9.614,0,0,1,2.908,2.52,11.525,11.525,0,0,1,1.724,3.065,12.216,12.216,0,0,1,.777,3.51,10.19,10.19,0,0,1-.534,4.076,9.319,9.319,0,0,1-2.735-2.692,14.066,14.066,0,0,1-1.586-3.149,14.455,14.455,0,0,1-.791-3.451A11.132,11.132,0,0,1,272.014,143.545Z" transform="translate(-271.71 -143.545)"/><g transform="translate(2.217 4.676)"><path class="b" d="M272.686,145.6q1.861,4.055,3.5,8.27a.625.625,0,0,1-.336.759.508.508,0,0,1-.72-.25l-.018-.061Q274.046,149.876,272.686,145.6Z" transform="translate(-272.686 -145.603)"/></g><g transform="translate(4.645 12.403)"><g transform="translate(0.591)"><path class="b" d="M288.048,153.025a10.988,10.988,0,0,1-4.267,1.17,11.784,11.784,0,0,1-3.715-.325,11.491,11.491,0,0,1-3.285-1.384,8.977,8.977,0,0,1-2.767-2.66,12.959,12.959,0,0,1,4.089-.811,15.315,15.315,0,0,1,3.669.3,12.278,12.278,0,0,1,3.365,1.19A8.06,8.06,0,0,1,288.048,153.025Z" transform="translate(-274.015 -149.004)"/></g><g transform="translate(0 0.251)"><path class="b" d="M283.22,151.882q-4.614-.675-9.085-1.654a.5.5,0,0,1-.35-.666.634.634,0,0,1,.709-.436l.061.016Q278.818,150.631,283.22,151.882Z" transform="translate(-273.755 -149.115)"/></g></g></g><g transform="translate(0 27.463)"><path class="b" d="M270.6,145.724a9.61,9.61,0,0,1,2.142,3.194,11.6,11.6,0,0,1,.861,3.41,12.166,12.166,0,0,1-.173,3.59,10.217,10.217,0,0,1-1.586,3.792,9.335,9.335,0,0,1-1.931-3.315,14.1,14.1,0,0,1-.7-3.453,14.4,14.4,0,0,1,.143-3.54A11.147,11.147,0,0,1,270.6,145.724Z" transform="translate(-269.161 -145.724)"/><g transform="translate(2.056 5.012)"><path class="b" d="M270.066,147.93q.733,4.4,1.209,8.9a.625.625,0,0,1-.525.645.5.5,0,0,1-.627-.429.3.3,0,0,1,0-.064Q270.257,152.412,270.066,147.93Z" transform="translate(-270.066 -147.93)"/></g><g transform="translate(2.121 13.493)"><g transform="translate(0.605 0.499)"><path class="b" d="M283.061,158.717a10.977,10.977,0,0,1-4.421.007,11.723,11.723,0,0,1-3.5-1.288,11.455,11.455,0,0,1-2.808-2.2,8.966,8.966,0,0,1-1.972-3.294,12.9,12.9,0,0,1,4.16.291,15.421,15.421,0,0,1,3.46,1.254,12.314,12.314,0,0,1,2.933,2.033A8.074,8.074,0,0,1,283.061,158.717Z" transform="translate(-270.361 -151.883)"/></g><path class="b" d="M278.685,156.672q-4.277-1.857-8.331-3.978a.5.5,0,0,1-.164-.736.631.631,0,0,1,.8-.234l.057.032Q274.766,154.312,278.685,156.672Z" transform="translate(-270.095 -151.663)"/></g></g><g transform="translate(19.619 10.789)"><path class="b" d="M277.8,138.385a6.317,6.317,0,0,1,2.5,1.05,7.15,7.15,0,0,1,1.733,1.695,7.733,7.733,0,0,1,1.125,2.22,6.928,6.928,0,0,1,.279,2.9,6.073,6.073,0,0,1-2.436-1.181,8.473,8.473,0,0,1-1.665-1.772,8.654,8.654,0,0,1-1.118-2.179A7.278,7.278,0,0,1,277.8,138.385Z" transform="translate(-277.797 -138.385)"/><g transform="translate(2.118 2.769)"><path class="b" d="M278.729,139.6q1.994,2.345,3.88,4.814a.48.48,0,0,1-.086.636.4.4,0,0,1-.591-.032l-.03-.045Q280.39,142.217,278.729,139.6Z" transform="translate(-278.729 -139.604)"/></g><g transform="translate(5.244 5.906)"><g transform="translate(0.45)"><path class="b" d="M290.181,142.544a7.533,7.533,0,0,1-5.144,2.2,7.188,7.188,0,0,1-2.426-.361,5.961,5.961,0,0,1-2.308-1.411,8.376,8.376,0,0,1,2.569-1.449A9.292,9.292,0,0,1,285.36,141a7.413,7.413,0,0,1,2.445.227A5.331,5.331,0,0,1,290.181,142.544Z" transform="translate(-280.303 -140.985)"/></g><g transform="translate(0 1.533)"><path class="b" d="M286.834,141.942q-3.179.412-6.325.616a.385.385,0,0,1-.4-.42.492.492,0,0,1,.434-.477.476.476,0,0,1,.057,0Q283.694,141.882,286.834,141.942Z" transform="translate(-280.105 -141.66)"/></g></g></g><g transform="translate(22.749 6.4)"><path class="b" d="M279.183,136.453a5.318,5.318,0,0,1,2.365.652,5.6,5.6,0,0,1,1.64,1.352,6.057,6.057,0,0,1,1.072,1.9,5.98,5.98,0,0,1,.289,2.635,5.085,5.085,0,0,1-2.324-.763,6.4,6.4,0,0,1-1.59-1.415,6.513,6.513,0,0,1-1.063-1.872A6.211,6.211,0,0,1,279.183,136.453Z" transform="translate(-279.174 -136.453)"/><g transform="translate(2.003 2.306)"><path class="b" d="M280.056,137.468q1.888,1.915,3.706,3.93a.482.482,0,0,1-.036.643.4.4,0,0,1-.593.018.436.436,0,0,1-.039-.052Q281.628,139.676,280.056,137.468Z" transform="translate(-280.056 -137.468)"/></g><g transform="translate(4.968 4.268)"><g transform="translate(0.45)"><path class="b" d="M290.133,139.7a6.437,6.437,0,0,1-2.183,1.8,5.807,5.807,0,0,1-2.165.622,5.587,5.587,0,0,1-2.133-.225,5.1,5.1,0,0,1-2.092-1.27,7.2,7.2,0,0,1,2.154-1.595,7.02,7.02,0,0,1,2.133-.643,5.64,5.64,0,0,1,2.142.109A4.55,4.55,0,0,1,290.133,139.7Z" transform="translate(-281.559 -138.332)"/></g><g transform="translate(0 1.782)"><path class="b" d="M287.268,139.116q-2.74.562-5.468.963a.385.385,0,0,1-.438-.386.5.5,0,0,1,.4-.511c.023,0,.045,0,.066,0Q284.532,139.208,287.268,139.116Z" transform="translate(-281.361 -139.116)"/></g></g></g><path class="c" d="M298.045,137.785s-5.171,20.152-28.424,32.942" transform="translate(-268.576 -128.359)"/></g><g transform="translate(3.578)"><path class="b" d="M219.291,133.636a6.171,6.171,0,0,0-.575,2.685,7.654,7.654,0,0,0,.411,2.438,8.041,8.041,0,0,0,1.136,2.195,6.377,6.377,0,0,0,2.047,1.824,7.369,7.369,0,0,0,.357-2.681,9.12,9.12,0,0,0-.436-2.354,8.573,8.573,0,0,0-1.038-2.158A7.109,7.109,0,0,0,219.291,133.636Z" transform="translate(-218.716 -133.636)"/><g transform="translate(1.902 4.31)"><path class="b" d="M219.553,135.533q.3,1.247.636,2.49.389,1.223.816,2.433a.279.279,0,0,0,.341.193.273.273,0,0,0,.148-.357l-.007-.018q-.491-1.179-.947-2.374Q220.031,136.728,219.553,135.533Z" transform="translate(-219.553 -135.533)"/></g></g><g transform="translate(3.703 15.163)"><g transform="translate(10.774)"><g transform="translate(0.362)"><path class="b" d="M229.471,140.31a7.448,7.448,0,0,0-2.595,1.472,8.9,8.9,0,0,0-1.781,2.065,9.49,9.49,0,0,0-1.129,2.551,7.91,7.91,0,0,0-.218,3.181,7.261,7.261,0,0,0,2.492-1.629,10.759,10.759,0,0,0,1.688-2.151,11.1,11.1,0,0,0,1.129-2.5A8.572,8.572,0,0,0,229.471,140.31Z" transform="translate(-223.673 -140.31)"/></g><g transform="translate(0 3.262)"><path class="b" d="M227.506,141.746q-2.038,2.8-3.928,5.752a.483.483,0,0,0,.139.629.392.392,0,0,0,.584-.079l.025-.043Q225.815,144.788,227.506,141.746Z" transform="translate(-223.514 -141.746)"/></g></g><g transform="translate(0 7.727)"><path class="b" d="M218.771,145.57a8.532,8.532,0,0,0,3.065,1.543,9.118,9.118,0,0,0,2.874.323,8.925,8.925,0,0,0,2.71-.55,6.921,6.921,0,0,0,2.51-1.6,10.033,10.033,0,0,0-2.985-1.243,11.917,11.917,0,0,0-2.835-.332,9.527,9.527,0,0,0-2.742.391A6.27,6.27,0,0,0,218.771,145.57Z" transform="translate(-218.771 -143.711)"/><g transform="translate(4.078 1.127)"><path class="b" d="M220.566,144.966q3.609.194,7.159.134a.385.385,0,0,0,.37-.452.492.492,0,0,0-.473-.441l-.05,0Q224.1,144.689,220.566,144.966Z" transform="translate(-220.566 -144.207)"/></g></g></g><g transform="translate(7.006 18.884)"><g transform="translate(12.154)"><g transform="translate(0.296)"><path class="b" d="M231.548,141.948a8.47,8.47,0,0,0-2.8,1.9,10.188,10.188,0,0,0-1.829,2.5,10.713,10.713,0,0,0-1.045,2.985,8.962,8.962,0,0,0,.039,3.617,8.189,8.189,0,0,0,2.672-2.065A12.346,12.346,0,0,0,230.3,148.3a12.73,12.73,0,0,0,1.054-2.933A9.835,9.835,0,0,0,231.548,141.948Z" transform="translate(-225.705 -141.948)"/></g><g transform="translate(0 3.885)"><path class="b" d="M229.553,143.658q-2.051,3.35-3.924,6.861a.545.545,0,0,0,.211.7.448.448,0,0,0,.657-.141l.023-.052Q227.918,147.251,229.553,143.658Z" transform="translate(-225.575 -143.658)"/></g></g><g transform="translate(0 9.736)"><path class="b" d="M220.225,148.863a9.678,9.678,0,0,0,3.605,1.47,10.334,10.334,0,0,0,3.278.1,10.137,10.137,0,0,0,3.017-.863,7.92,7.92,0,0,0,2.7-2.036,11.37,11.37,0,0,0-3.487-1.138,13.56,13.56,0,0,0-3.237-.12,10.8,10.8,0,0,0-3.067.688A7.137,7.137,0,0,0,220.225,148.863Z" transform="translate(-220.225 -146.233)"/><g transform="translate(4.614 0.799)"><path class="b" d="M222.256,148.082q4.1-.106,8.113-.493a.439.439,0,0,0,.375-.548.558.558,0,0,0-.573-.454l-.057.009Q226.233,147.448,222.256,148.082Z" transform="translate(-222.256 -146.585)"/></g></g></g><g transform="translate(11.68 22.512)"><g transform="translate(13.517)"><g transform="translate(0.021)"><path class="b" d="M233.666,143.545a9.632,9.632,0,0,0-2.906,2.52,11.6,11.6,0,0,0-1.727,3.065,12.289,12.289,0,0,0-.775,3.51,10.224,10.224,0,0,0,.532,4.076,9.291,9.291,0,0,0,2.735-2.692,13.986,13.986,0,0,0,1.588-3.149,14.455,14.455,0,0,0,.791-3.451A11.188,11.188,0,0,0,233.666,143.545Z" transform="translate(-228.241 -143.545)"/></g><g transform="translate(0 4.676)"><path class="b" d="M231.767,145.6q-1.864,4.055-3.5,8.27a.625.625,0,0,0,.336.759.508.508,0,0,0,.72-.25l.018-.061Q230.4,149.876,231.767,145.6Z" transform="translate(-228.232 -145.603)"/></g></g><g transform="translate(0 12.403)"><path class="b" d="M222.282,153.025a10.989,10.989,0,0,0,4.264,1.17,11.778,11.778,0,0,0,3.715-.325,11.5,11.5,0,0,0,3.287-1.384,8.947,8.947,0,0,0,2.765-2.66,12.935,12.935,0,0,0-4.089-.811,15.3,15.3,0,0,0-3.667.3,12.251,12.251,0,0,0-3.365,1.19A8.061,8.061,0,0,0,222.282,153.025Z" transform="translate(-222.282 -149.004)"/><g transform="translate(5.159 0.251)"><path class="b" d="M224.553,151.882q4.614-.675,9.085-1.654a.5.5,0,0,0,.35-.666.635.635,0,0,0-.709-.436l-.061.016Q228.951,150.631,224.553,151.882Z" transform="translate(-224.553 -149.115)"/></g></g></g><g transform="translate(21.315 27.463)"><g transform="translate(10.921)"><path class="b" d="M234.395,145.724a9.652,9.652,0,0,0-2.145,3.194,11.526,11.526,0,0,0-.859,3.41,12.171,12.171,0,0,0,.173,3.59,10.21,10.21,0,0,0,1.584,3.792,9.309,9.309,0,0,0,1.933-3.315,14.1,14.1,0,0,0,.7-3.453,14.513,14.513,0,0,0-.143-3.54A11.149,11.149,0,0,0,234.395,145.724Z" transform="translate(-231.33 -145.724)"/><g transform="translate(1.237 5.012)"><path class="b" d="M233.084,147.93q-.733,4.4-1.206,8.9a.623.623,0,0,0,.523.645.505.505,0,0,0,.629-.429.587.587,0,0,0,0-.064Q232.892,152.412,233.084,147.93Z" transform="translate(-231.875 -147.93)"/></g></g><g transform="translate(0 13.493)"><g transform="translate(0 0.499)"><path class="b" d="M226.523,158.717a10.977,10.977,0,0,0,4.421.007,11.722,11.722,0,0,0,3.5-1.288,11.5,11.5,0,0,0,2.808-2.2,9,9,0,0,0,1.972-3.294,12.9,12.9,0,0,0-4.16.291,15.381,15.381,0,0,0-3.46,1.254,12.373,12.373,0,0,0-2.935,2.033A8.07,8.07,0,0,0,226.523,158.717Z" transform="translate(-226.523 -151.883)"/></g><g transform="translate(4.714)"><path class="b" d="M228.6,156.672q4.273-1.857,8.331-3.978a.5.5,0,0,0,.164-.736.631.631,0,0,0-.8-.234l-.057.032Q232.517,154.312,228.6,156.672Z" transform="translate(-228.598 -151.663)"/></g></g></g><g transform="translate(1.549 10.789)"><g transform="translate(9.489)"><g transform="translate(0.387)"><path class="b" d="M227.859,138.385a6.3,6.3,0,0,0-2.5,1.05,7.2,7.2,0,0,0-1.736,1.695,7.726,7.726,0,0,0-1.122,2.22,6.889,6.889,0,0,0-.279,2.9,6.087,6.087,0,0,0,2.435-1.181,8.46,8.46,0,0,0,1.663-1.772,8.587,8.587,0,0,0,1.12-2.179A7.274,7.274,0,0,0,227.859,138.385Z" transform="translate(-222.17 -138.385)"/></g><g transform="translate(0 2.769)"><path class="b" d="M225.963,139.6q-1.99,2.345-3.878,4.814a.48.48,0,0,0,.086.636.4.4,0,0,0,.591-.032l.03-.045Q224.3,142.217,225.963,139.6Z" transform="translate(-222 -139.604)"/></g></g><g transform="translate(0 5.906)"><path class="b" d="M217.823,142.544a7.523,7.523,0,0,0,5.144,2.2,7.167,7.167,0,0,0,2.424-.361,5.953,5.953,0,0,0,2.31-1.411,8.4,8.4,0,0,0-2.569-1.449,9.31,9.31,0,0,0-2.488-.516,7.413,7.413,0,0,0-2.445.227A5.319,5.319,0,0,0,217.823,142.544Z" transform="translate(-217.823 -140.985)"/><g transform="translate(3.599 1.533)"><path class="b" d="M219.407,141.942q3.176.412,6.323.616a.385.385,0,0,0,.407-.42.494.494,0,0,0-.436-.477.439.439,0,0,0-.055,0Q222.548,141.882,219.407,141.942Z" transform="translate(-219.407 -141.66)"/></g></g></g><g transform="translate(0 6.4)"><g transform="translate(8.177)"><g transform="translate(0.4)"><path class="b" d="M226.321,136.453a5.316,5.316,0,0,0-2.363.652,5.6,5.6,0,0,0-1.64,1.352,6.107,6.107,0,0,0-1.075,1.9,6.017,6.017,0,0,0-.286,2.635,5.094,5.094,0,0,0,2.324-.763,6.383,6.383,0,0,0,1.588-1.415,6.517,6.517,0,0,0,1.065-1.872A6.172,6.172,0,0,0,226.321,136.453Z" transform="translate(-220.916 -136.453)"/></g><g transform="translate(0 2.306)"><path class="b" d="M224.552,137.468q-1.888,1.915-3.705,3.93a.482.482,0,0,0,.036.643.4.4,0,0,0,.591.018.451.451,0,0,0,.039-.052Q222.981,139.676,224.552,137.468Z" transform="translate(-220.74 -137.468)"/></g></g><g transform="translate(0 4.268)"><path class="b" d="M217.141,139.7a6.436,6.436,0,0,0,2.183,1.8,5.8,5.8,0,0,0,2.165.622,5.575,5.575,0,0,0,2.131-.225,5.076,5.076,0,0,0,2.092-1.27,7.16,7.16,0,0,0-2.151-1.595,7.019,7.019,0,0,0-2.133-.643,5.641,5.641,0,0,0-2.142.109A4.53,4.53,0,0,0,217.141,139.7Z" transform="translate(-217.141 -138.332)"/><g transform="translate(3.115 1.782)"><path class="b" d="M218.512,139.116q2.743.562,5.471.963a.386.386,0,0,0,.439-.386.5.5,0,0,0-.4-.511.59.59,0,0,0-.064,0Q221.247,139.208,218.512,139.116Z" transform="translate(-218.512 -139.116)"/></g></g></g><path class="c" d="M220.342,137.785s5.171,20.152,28.421,32.942" transform="translate(-213.07 -128.359)"/></g><g transform="translate(1.231)"><g transform="translate(0 38.411)"><path class="d" d="M266.408,93.508a72.014,72.014,0,0,1,34.826,80.232" transform="translate(-155.71 -80.603)"/><path class="d" d="M221.729,174.651a72.01,72.01,0,0,1,34.58-81.14" transform="translate(-215.527 -80.599)"/><path class="b" d="M62.827,0A62.827,62.827,0,1,1,0,62.827,62.827,62.827,0,0,1,62.827,0Z" transform="translate(12.919 12.919)"/><circle class="e" cx="57.819" cy="57.819" r="57.819" transform="translate(0 44.948) rotate(-22.873)"/><g transform="translate(0 0)"><g class="f"><g transform="translate(19.435 24.348)"><g transform="translate(0 65.512)"><path class="g" d="M338.86,145.667l-46.654,31.4H271.473L226.238,146.53l45.236-10.289H292.2Z" transform="translate(-226.238 -116.112)"/><g transform="translate(45.236)"><path class="h" d="M266.787,150.927h.084V127.381H246.149v23.546h.093a2.548,2.548,0,0,0-.093.45c0,2.754,4.642,4.987,10.367,4.987s10.364-2.233,10.364-4.987A2.554,2.554,0,0,0,266.787,150.927Z" transform="translate(-246.149 -127.381)"/><path class="i" d="M246.149,140.051a18.2,18.2,0,0,0,10.367,3.51,17.58,17.58,0,0,0,10.355-3.64V127.381H246.149Z" transform="translate(-246.149 -127.381)"/></g><g transform="translate(46.474 27.753)"><path class="h" d="M254.439,139.6l-6.658,4.837,2.543,7.827h8.23l2.543-7.827Z" transform="translate(-245.311 -139.597)"/><path class="h" d="M264.879,174.2H246.694l5.013-29.028h8.159Z" transform="translate(-246.694 -132.507)"/></g></g><g transform="translate(25.321)"><path class="h" d="M241.48,147l-2.47-23.955A20.785,20.785,0,0,1,259.8,102.261h11.6a20.785,20.785,0,0,1,20.785,20.785L288.973,147c0,7.268-9.274,26.238-23.378,26.238C251.442,173.239,241.48,154.419,241.48,147Z" transform="translate(-235.314 -93.819)"/><path class="h" d="M237.6,122.61c.518,3.326,2.167,8.42,5.125,9.372,3.808,1.227,2.656-1.856,1.638-6.811-.757-3.68-2.124-8.136-4.28-9.61C238.75,114.651,236.715,116.916,237.6,122.61Z" transform="translate(-237.383 -77.151)"/><path class="h" d="M268.215,122.61c-.518,3.326-2.167,8.42-5.125,9.372-3.808,1.227-2.656-1.856-1.638-6.811.757-3.68,2.126-8.136,4.28-9.61C267.063,114.651,269.1,116.916,268.215,122.61Z" transform="translate(-208.037 -77.151)"/><path class="g" d="M293.992,129.518c.025-17.43-5.5-23.853-15.992-26.674l2.024-4.3a15.066,15.066,0,0,0-7.041,3.315c-.829-.1-1.652-.2-2.41-.227l0,0c-26.729-1.643-30.509,8.376-32.061,21.247-1.315,10.916,1.77,22.853,1.77,22.853a2.253,2.253,0,0,0,.7-.47,4.327,4.327,0,0,0,4.058,2.842l1.688-18.077,8.719-8.077c2.42,3.135,8.767,6.8,25.018,7.765l-4.308-6.189,10.289,6.779,1.661,17.8a4.341,4.341,0,0,0,4.342-4.342v-2.992a21.267,21.267,0,0,0,1.218-3.169C294.362,135.186,293.987,132.405,293.992,129.518Z" transform="translate(-236.368 -98.545)"/></g></g></g></g></g><g transform="translate(58.631 183.204)"><path class="b" d="M272.538,154.768V151.56H248.954v3.208H243.49v3.705a16.886,16.886,0,0,0,12.05,16.158,14.388,14.388,0,0,0,3.74,3.26l.379,8.776h0l-3.994,6.884h0a1.558,1.558,0,0,0-1.559,1.558v1.9h13.284v-1.9a1.558,1.558,0,0,0-1.559-1.558h0l-3.994-6.884h0l.379-8.776a14.6,14.6,0,0,0,3.894-3.444,16.887,16.887,0,0,0,11.471-15.974v-3.705Zm-27.9,3.705v-2.556h4.314v.909a21.306,21.306,0,0,0,.738,5.577,34.466,34.466,0,0,0,4.582,10.555A15.736,15.736,0,0,1,244.64,158.473Zm31.788,0a15.731,15.731,0,0,1-9.028,14.215,35.036,35.036,0,0,0,4.4-10.285,21.308,21.308,0,0,0,.738-5.577v-.909h3.889Z" transform="translate(-243.49 -151.56)"/><path class="j" d="M253.236,166.327l.138-3.177H250.44l.137,3.177Z" transform="translate(-234.651 -136.819)"/><line class="k" x2="23.585" transform="translate(5.463 3.754)"/><line class="l" x2="23.585" transform="translate(5.463 5.433)"/><path class="j" d="M.37,0H15.022a.369.369,0,0,1,.369.369V1.791a0,0,0,0,1,0,0H0a0,0,0,0,1,0,0V.37A.37.37,0,0,1,.37,0Z" transform="translate(9.349 43.663)"/><path class="j" d="M254.128,154.883l1.323,4.07h4.279l-3.462,2.515,1.322,4.07-3.462-2.515-3.462,2.515,1.322-4.07-3.462-2.515h4.279Z" transform="translate(-237.084 -147.333)"/></g><text class="m" transform="translate(52.984 43)"><tspan x="0" y="0">#1</tspan></text></g></svg>