<svg xmlns="http://www.w3.org/2000/svg" xmlns:xlink="http://www.w3.org/1999/xlink" width="115.772" height="169.019" viewBox="0 0 115.772 169.019"><defs><style>.a,.e{fill:none;}.b{fill:#fff;}.c{fill:#8e8dff;}.d,.f{fill:#d6cfff;}.d{font-size:31px;font-family:Okomito-Medium, Okomito;font-weight:500;}.e{stroke:#d6cfff;stroke-miterlimit:10;stroke-width:1.06px;}.g{fill:#131c1f;}.h{clip-path:url(#a);}.i{fill:#3a2d7a;}.j{fill:#daddf2;}</style><clipPath id="a"><circle class="a" cx="40.856" cy="40.856" r="40.856" transform="translate(0 80.644) rotate(-80.73)"/></clipPath></defs><g transform="translate(45.812 136.818)"><path class="b" d="M182.581,144.807v-2.272h-16.71v2.272H162v2.626a11.962,11.962,0,0,0,8.535,11.446,10.273,10.273,0,0,0,2.649,2.31l.27,6.216h0l-2.828,4.878h0a1.1,1.1,0,0,0-1.106,1.1v1.349h9.412v-1.349a1.1,1.1,0,0,0-1.106-1.1h0L175,167.405h0l.268-6.216a10.386,10.386,0,0,0,2.758-2.44,11.966,11.966,0,0,0,8.127-11.316v-2.626Zm-19.765,2.626v-1.811h3.056v.643a15.155,15.155,0,0,0,.523,3.951,24.474,24.474,0,0,0,3.247,7.477A11.141,11.141,0,0,1,162.815,147.433Zm22.521,0a11.143,11.143,0,0,1-6.4,10.069,24.778,24.778,0,0,0,3.119-7.286,15.155,15.155,0,0,0,.523-3.951v-.643h2.756Z" transform="translate(-162.002 -142.535)"/><path class="c" d="M168.906,153l.1-2.251h-2.079l.1,2.251Z" transform="translate(-155.74 -132.092)"/><rect class="c" width="16.709" height="0.941" transform="translate(3.869 2.189)"/><rect class="c" width="16.709" height="0.628" transform="translate(3.869 3.535)"/><path class="c" d="M.262,0h10.38A.262.262,0,0,1,10.9.262V1.269a0,0,0,0,1,0,0H0a0,0,0,0,1,0,0V.262A.262.262,0,0,1,.262,0Z" transform="translate(6.622 30.933)"/><path class="c" d="M169.538,144.889l.937,2.883h3.032l-2.453,1.782.937,2.883-2.453-1.782-2.452,1.782.937-2.883-2.453-1.782H168.6Z" transform="translate(-157.464 -139.541)"/></g><text class="d" transform="translate(39.54 31)"><tspan x="0" y="0">#2</tspan></text><g transform="translate(0 24.034)"><path class="e" d="M178.187,98.825A50.9,50.9,0,0,1,202.8,155.52" transform="translate(-95.604 -85.345)"/><path class="e" d="M146.618,156.164a50.876,50.876,0,0,1,24.434-57.336" transform="translate(-137.871 -85.341)"/><circle class="f" cx="44.395" cy="44.395" r="44.395" transform="translate(0 33.577) rotate(-22.22)"/><circle class="g" cx="40.856" cy="40.856" r="40.856" transform="translate(10.983 91.627) rotate(-80.73)"/><g transform="translate(10.983 10.983)"><g class="h" transform="translate(0 0)"><g transform="translate(7.113 10.585)"><g transform="translate(0 46.292)"><path class="i" d="M229.383,135.681l-32.967,22.189h-14.65L149.8,136.292l31.964-7.27h14.643Z" transform="translate(-149.802 -114.799)"/><g transform="translate(31.965)"><path class="b" d="M178.455,139.4h.059V122.761H163.872V139.4h.066a1.723,1.723,0,0,0-.066.318c0,1.947,3.278,3.524,7.325,3.524s7.325-1.577,7.325-3.524A1.927,1.927,0,0,0,178.455,139.4Z" transform="translate(-163.872 -122.761)"/><path class="j" d="M163.872,131.715a12.873,12.873,0,0,0,7.325,2.479,12.427,12.427,0,0,0,7.318-2.572v-8.86H163.872Z" transform="translate(-163.872 -122.761)"/></g><g transform="translate(32.839 19.61)"><path class="b" d="M169.73,131.393l-4.7,3.418,1.8,5.531h5.816l1.8-5.531Z" transform="translate(-163.28 -131.393)"/><path class="b" d="M177.107,155.844h-12.85l3.542-20.512h5.765Z" transform="translate(-164.257 -126.383)"/></g></g><g transform="translate(17.893)"><path class="b" d="M160.574,136.624,158.827,119.7a14.688,14.688,0,0,1,14.688-14.688h8.195A14.688,14.688,0,0,1,196.4,119.7l-2.267,16.926c0,5.134-6.552,18.541-16.519,18.541C167.612,155.165,160.574,141.865,160.574,136.624Z" transform="translate(-156.216 -99.045)"/><path class="b" d="M157.83,119.39c.366,2.349,1.531,5.948,3.621,6.62,2.69.868,1.877-1.311,1.156-4.812-.534-2.6-1.5-5.75-3.024-6.791C158.644,113.765,157.206,115.365,157.83,119.39Z" transform="translate(-157.678 -87.268)"/><path class="b" d="M179.463,119.39c-.364,2.349-1.529,5.948-3.619,6.62-2.692.868-1.879-1.311-1.159-4.812.536-2.6,1.5-5.75,3.024-6.791C178.652,113.765,180.09,115.365,179.463,119.39Z" transform="translate(-136.942 -87.268)"/><path class="i" d="M197.678,124.27c.018-12.316-3.885-16.855-11.3-18.848l1.429-3.038a10.611,10.611,0,0,0-4.973,2.342c-.588-.073-1.168-.139-1.706-.161l0,0c-18.886-1.159-21.558,5.921-22.655,15.015-.929,7.713,1.252,16.149,1.252,16.149a1.657,1.657,0,0,0,.491-.332,3.059,3.059,0,0,0,2.867,2.006l1.193-12.772,6.161-5.707c1.708,2.215,6.2,4.8,17.678,5.487l-3.042-4.371,7.27,4.787,1.172,12.577a3.066,3.066,0,0,0,3.067-3.067v-2.115a14.953,14.953,0,0,0,.863-2.238C197.939,128.275,197.676,126.31,197.678,124.27Z" transform="translate(-156.961 -102.385)"/></g></g></g></g></g></svg>