<svg xmlns="http://www.w3.org/2000/svg" viewBox="0 0 85.3 85.3"><defs><style>.a{fill:#ddd;}.c{fill:#8f8f8f;}</style></defs><path class="a" d="M42.65,0A42.65,42.65,0,1,1,0,42.65,42.65,42.65,0,0,1,42.65,0Z"/><g class="b" transform="translate(23 20)"><g transform="translate(8.003 0)"><path class="c" d="M133,0a12,12,0,1,0,12,12A12.017,12.017,0,0,0,133,0Z" transform="translate(-121)"/></g><g transform="translate(0 26.675)"><path class="c" d="M65.941,305.175A17.112,17.112,0,0,0,53.674,300H48.339a17.112,17.112,0,0,0-12.268,5.175A17.494,17.494,0,0,0,31,317.516a1.334,1.334,0,0,0,1.334,1.334H69.679a1.334,1.334,0,0,0,1.334-1.334A17.494,17.494,0,0,0,65.941,305.175Z" transform="translate(-31 -300)"/></g></g></svg>