<svg xmlns="http://www.w3.org/2000/svg" width="27.681" height="36.835" viewBox="0 0 27.681 36.835"><defs><style>.a{fill:#fff;fill-rule:evenodd;}</style></defs><g transform="translate(-0.002 -0.001)"><path class="a" d="M26.667,33.894l-3.462-.62-1.718,3.075c-1.247,1.544-2.038-1-2.386-1.879l-3.342-6.3a9.29,9.29,0,0,0,2.653-1.9c1.9.039,3.678-.291,4.982-1.951l3.84,7.419.333.713c.264.926.126,1.538-.9,1.451ZM13.844,0a2.8,2.8,0,0,1,1.682.528c.656.417,1.4,1.241,2.311,1.763,1.286.734,3.666-.279,4.883,1.532a4.75,4.75,0,0,1,.8,2.7,4.754,4.754,0,0,0,1.115,2.887c1.5,1.978,1.807,3.294,1.037,4.664-.525.935-1.631,1.454-1.885,2.047-.546,1.259.057,2.209-.686,3.678a3.918,3.918,0,0,1-2.38,2.032c-.9.288-1.8-.129-2.515.174-1.262.531-2.191,1.763-3.2,2.074a3.893,3.893,0,0,1-2.32,0c-1-.312-1.933-1.544-3.2-2.074-.719-.3-1.619.117-2.515-.174A3.918,3.918,0,0,1,4.6,19.8c-.746-1.469-.144-2.419-.686-3.678-.255-.594-1.361-1.112-1.885-2.047-.776-1.37-.465-2.686,1.031-4.661A4.754,4.754,0,0,0,4.171,6.529a4.75,4.75,0,0,1,.8-2.7c1.22-1.81,3.6-.8,4.883-1.532.914-.522,1.655-1.346,2.311-1.763A2.754,2.754,0,0,1,13.844,0ZM11.73,10.729l1.565,1.49,2.692-2.737c.267-.27.435-.486.761-.15l1.067,1.091c.351.348.333.549,0,.872L13.9,15.144c-.7.683-.576.725-1.283.024L9.932,12.494a.307.307,0,0,1,.03-.48L11.2,10.732c.189-.2.339-.186.531,0Zm2.113-5.86a7.263,7.263,0,1,1-7.263,7.263,7.264,7.264,0,0,1,7.263-7.263ZM1.017,33.894l3.465-.62L6.2,36.349c1.247,1.544,2.038-1,2.386-1.879l3.342-6.3a9.29,9.29,0,0,1-2.653-1.9c-1.9.039-3.678-.291-4.982-1.951L.451,31.729l-.333.713c-.264.926-.126,1.538.9,1.451Z" transform="translate(0)"/></g></svg>