<svg xmlns="http://www.w3.org/2000/svg" width="46.907" height="43.609" viewBox="0 0 46.907 43.609"><defs><style>.a{fill:#37c673;}</style></defs><path class="a" d="M179.326,205.7h-.018a.918.918,0,0,0,0,1.836h.018a.918.918,0,1,0,0-1.836Zm0,0" transform="translate(-162.047 -186.858)"/><path class="a" d="M43.409,17.072H40.815V13.631a3.32,3.32,0,1,0-4.107-4.108H34.556V3.5a3.506,3.506,0,0,0-3.5-3.5H3.5A3.506,3.506,0,0,0,0,3.5V22.283a3.506,3.506,0,0,0,3.5,3.5h9.079l-.6,3.189H10.922a.918.918,0,1,0,0,1.836h5.44v2.629a3.32,3.32,0,1,0,4.107,4.108h7.792v2.562a3.5,3.5,0,0,0,3.5,3.5H43.409a3.5,3.5,0,0,0,3.5-3.5V20.572a3.5,3.5,0,0,0-3.5-3.5ZM45.072,38.5H30.1V22.008h5.216l.643.685a.916.916,0,0,0,.669.29h1.791a.918.918,0,0,0,.711-.338l.52-.637h5.425ZM39.9,8.956a1.485,1.485,0,1,1-1.484,1.485A1.486,1.486,0,0,1,39.9,8.956Zm-5.341,2.4h2.152a3.332,3.332,0,0,0,2.271,2.272v3.441H34.556Zm8.853,7.549a1.666,1.666,0,0,1,1.613,1.264h-5.81a.918.918,0,0,0-.711.337l-.52.638h-.958l-.643-.685a.918.918,0,0,0-.669-.29H30.147c.007-.028.013-.055.021-.083s.016-.043.022-.064a1.665,1.665,0,0,1,1.569-1.117ZM3.5,23.95a1.668,1.668,0,0,1-1.666-1.667v-1.6H13.6a.918.918,0,1,0,0-1.836H1.836V3.5A1.668,1.668,0,0,1,3.5,1.836H31.055A1.669,1.669,0,0,1,32.721,3.5V17.072h-.962a3.5,3.5,0,0,0-3.042,1.774H20.924a.918.918,0,1,0,0,1.836h7.337V23.95H3.5Zm10.346,5.024.6-3.189h5.66l.6,3.189Zm4.914,7.681a1.485,1.485,0,1,1,0-.051c0,.009,0,.017,0,.025s0,.017,0,.026Zm1.707-.943A3.332,3.332,0,0,0,18.2,33.439V30.81h5.437a.918.918,0,0,0,0-1.836H22.578l-.6-3.189h6.285v9.926Zm22.94,6.062H31.759a1.665,1.665,0,0,1-1.647-1.441H45.055a1.665,1.665,0,0,1-1.646,1.441Zm0,0" transform="translate(0 0)"/></svg>