<svg xmlns="http://www.w3.org/2000/svg" width="25.312" height="26.5" viewBox="0 0 25.312 26.5"><defs><style>.a{fill:#fff;fill-rule:evenodd;}</style></defs><path class="a" d="M18.363,3.2,9.33,8.687H11.9l6.669-4.053.979-.6L22.37,8.687h1.643a1.3,1.3,0,0,1,.917.38h0a1.291,1.291,0,0,1,.382.914V25.206a1.29,1.29,0,0,1-.38.912v0a1.291,1.291,0,0,1-.917.38H1.3a1.291,1.291,0,0,1-.917-.38v0A1.281,1.281,0,0,1,0,25.208V9.981A1.3,1.3,0,0,1,1.3,8.687h.539L15.859.166h0a1.137,1.137,0,0,1,1.564.382h0L18.852,2.9l-.49.3ZM1.27,9.839a.682.682,0,0,0-.121.181v1.874H24.158V9.981a.136.136,0,0,0-.041-.1h0a.147.147,0,0,0-.1-.043H1.3a.105.105,0,0,0-.026,0ZM3.446,18.27H7.555v1.538H3.446V18.27Zm0,3.641H14.931V23.3H3.446V21.91ZM18.593,18.27H22.7v1.538H18.593V18.27Zm-5.049,0h4.109v1.538H13.544V18.27Zm-5.049,0H12.6v1.538H8.5V18.27Zm15.662-2.064H1.15v9a.138.138,0,0,0,.043.1h0a.144.144,0,0,0,.1.043H24.013a.155.155,0,0,0,.1-.043h0a.145.145,0,0,0,.043-.1h0v-9Z"/></svg>