<svg xmlns="http://www.w3.org/2000/svg" width="59.452" height="41.233" viewBox="0 0 59.452 41.233"><defs><style>.a{fill:#37c673;}</style></defs><g transform="translate(0 0)"><path class="a" d="M64.1,92.466h-.479v-9.11A3.36,3.36,0,0,0,60.26,80H15.192a3.36,3.36,0,0,0-3.356,3.356V98.219h-.479A3.36,3.36,0,0,0,8,101.575v16.3a3.36,3.36,0,0,0,3.356,3.356h8.63a3.36,3.36,0,0,0,3.356-3.356V114.52H31.7l-.479,1.918H29.1a.959.959,0,0,0-.959.959v2.877a.959.959,0,0,0,.959.959h17.26a.959.959,0,0,0,.959-.959V117.4a.959.959,0,0,0-.959-.959H44.229l-.479-1.918h4.525v3.356a3.36,3.36,0,0,0,3.356,3.356H64.1a3.36,3.36,0,0,0,3.356-3.356V95.822A3.36,3.36,0,0,0,64.1,92.466ZM21.425,117.877a1.44,1.44,0,0,1-1.438,1.438h-8.63a1.44,1.44,0,0,1-1.438-1.438v-16.3a1.44,1.44,0,0,1,1.438-1.438H12.1l.741,2.221a.959.959,0,0,0,.91.656h3.836a.959.959,0,0,0,.91-.656l.741-2.221h.747a1.44,1.44,0,0,1,1.438,1.438Zm-7.3-17.74h3.092l-.32.959H14.445ZM45.4,118.356v.959H30.055v-.959Zm-12.2-1.918.479-1.918h8.091l.479,1.918ZM48.274,112.6H23.342v-3.836H48.274Zm0-16.781v11.027H23.342v-5.274a3.36,3.36,0,0,0-3.356-3.356H13.753V83.356a1.44,1.44,0,0,1,1.438-1.438H60.26A1.44,1.44,0,0,1,61.7,83.356v9.11H51.63A3.36,3.36,0,0,0,48.274,95.822Zm11.135-1.438-.32.959H56.637l-.32-.959Zm6.125,23.493a1.44,1.44,0,0,1-1.438,1.438H51.63a1.44,1.44,0,0,1-1.438-1.438V95.822a1.44,1.44,0,0,1,1.438-1.438h2.665l.741,2.221a.959.959,0,0,0,.91.656h3.836a.959.959,0,0,0,.91-.656l.741-2.221H64.1a1.44,1.44,0,0,1,1.438,1.438Z" transform="translate(-8 -80)"/><path class="a" d="M404.794,384h-3.836a.959.959,0,1,0,0,1.918h3.836a.959.959,0,1,0,0-1.918Z" transform="translate(-353.014 -347.562)"/><path class="a" d="M52.795,384H48.959a.959.959,0,1,0,0,1.918h3.836a.959.959,0,1,0,0-1.918Z" transform="translate(-43.205 -347.562)"/><path class="a" d="M242.877,328h-1.918a.959.959,0,0,0,0,1.918h1.918a.959.959,0,0,0,0-1.918Z" transform="translate(-212.192 -298.274)"/></g></svg>