<svg xmlns="http://www.w3.org/2000/svg" width="19.846" height="21.629" viewBox="0 0 19.846 21.629"><defs><style>.a{fill:#87c242;stroke:#87c242;stroke-width:0.5px;}</style></defs><path class="a" d="M17.316,10.384C16.347,8.9,15.67,7.85,14.951,6.739c-.378-.585-.769-1.19-1.277-1.971l-.223.146a.464.464,0,0,1-.687-.536.453.453,0,0,1,.185-.24l.225-.148c-.515-.8-1.162-1.784-1.99-3.051a.117.117,0,0,0-.07-.048.122.122,0,0,0-.084.015l-.386.245a1.737,1.737,0,0,1,.077.987,1.758,1.758,0,0,1-.749,1.106l-.012.01a1.77,1.77,0,0,1-2.177-.2l-.4.251a1.768,1.768,0,0,1,.082.955A1.739,1.739,0,0,1,6.71,5.39l-.064.041a1.732,1.732,0,0,1-1.3.22,1.784,1.784,0,0,1-.858-.465l-.5.328a.112.112,0,0,0-.041.065.117.117,0,0,0,0,.072l.017.027C4.767,6.913,5.4,7.9,5.929,8.72h.014l.776-.515a.464.464,0,0,1,.687.536.47.47,0,0,1-.185.24l-.776.506L6.424,9.5c.194.3.381.594.575.891Zm-11.276,0L5.38,9.354C4.848,8.525,4.2,7.522,3.277,6.1h0a.932.932,0,0,1,.266-1.288c.216-.144.6-.424.814-.532a.412.412,0,0,1,.568.125v.01a.963.963,0,0,0,.594.422.92.92,0,0,0,.687-.115L6.249,4.7a.922.922,0,0,0,.4-.594A.961.961,0,0,0,6.5,3.392l-.015-.026A.412.412,0,0,1,6.618,2.8l1.021-.627a.41.41,0,0,1,.57.118.936.936,0,0,0,1.3.273h.01a.944.944,0,0,0,.4-.589.917.917,0,0,0-.13-.687l-.026-.038a.412.412,0,0,1,.12-.57l.687-.45A.936.936,0,0,1,11.859.5c1.875,2.826,2.858,4.371,3.782,5.789.687,1.075,1.344,2.079,2.659,4.091h.108a.937.937,0,0,1,.936.934v.963a.414.414,0,0,1-.412.412h-.048a.91.91,0,0,0-.647.27.939.939,0,0,0-.276.658v.024a.913.913,0,0,0,.278.659l.019.019a.967.967,0,0,0,.659.249h.017a.412.412,0,0,1,.412.409h0V16.7a.412.412,0,0,1-.412.412h-.017a.979.979,0,0,0-.676.266.922.922,0,0,0-.282.659v.026a.942.942,0,0,0,.276.658.913.913,0,0,0,.647.271h.048a.41.41,0,0,1,.414.407h0v.821a.937.937,0,0,1-.936.934H.933A.937.937,0,0,1,0,20.23v-.821A.412.412,0,0,1,.412,19H.463a.91.91,0,0,0,.647-.27.953.953,0,0,0,.276-.658v-.012h0a.937.937,0,0,0-.941-.939.412.412,0,0,1-.412-.412v-.027L0,14.99a.41.41,0,0,1,.4-.419H.429a.973.973,0,0,0,.687-.264h0a.92.92,0,0,0,.278-.659V13.62a.922.922,0,0,0-.278-.658l-.026-.019a.975.975,0,0,0-.661-.251H.382A.409.409,0,0,1,0,12.283H0v-.965a.937.937,0,0,1,.934-.934Zm4.479,7.763a.642.642,0,0,1-.256.251,1.186,1.186,0,0,1-.541.089c-.254,0-.379-.067-.379-.2a.252.252,0,0,1,.015-.062l2.747-4.846a1.063,1.063,0,0,1,.129-.191.606.606,0,0,1,.213-.132,1.008,1.008,0,0,1,.386-.065c.321,0,.481.07.481.209a.149.149,0,0,1-.015.069L10.52,18.147ZM9.27,15.939a2.515,2.515,0,0,1-.594-.062,1.361,1.361,0,0,1-.467-.216,1.429,1.429,0,0,1-.441-1.231,1.336,1.336,0,0,1,.464-1.2,1.888,1.888,0,0,1,1.03-.254,1.947,1.947,0,0,1,1.044.254,1.33,1.33,0,0,1,.465,1.2,1.429,1.429,0,0,1-.441,1.231A1.846,1.846,0,0,1,9.27,15.939Zm0-.75a.124.124,0,0,0,.1-.046.93.93,0,0,0,.1-.549,3.911,3.911,0,0,0-.029-.608.455.455,0,0,0-.07-.206.134.134,0,0,0-.1-.038c-.136,0-.2.24-.2.723s.067.724.2.724Zm4.069,3.375a2.489,2.489,0,0,1-.592-.062,1.355,1.355,0,0,1-.469-.216,1.419,1.419,0,0,1-.433-1.222,1.294,1.294,0,0,1,.464-1.185,1.847,1.847,0,0,1,1.03-.264,1.912,1.912,0,0,1,1.046.264,1.3,1.3,0,0,1,.464,1.185,1.41,1.41,0,0,1-.441,1.231,1.845,1.845,0,0,1-1.068.278Zm0-.75a.134.134,0,0,0,.1-.039.954.954,0,0,0,.1-.556,3.911,3.911,0,0,0-.031-.608.455.455,0,0,0-.07-.206.134.134,0,0,0-.1-.039c-.134,0-.2.242-.2.724s.067.724.2.724Zm5.07-6.606H5.018v.618a.28.28,0,0,1,0,.053.364.364,0,0,1-.726-.053v-.618H.933a.11.11,0,0,0-.077.033.117.117,0,0,0-.033.077v.6a1.782,1.782,0,0,1,.829.434l.026.022a1.741,1.741,0,0,1,.529,1.245v.041A1.741,1.741,0,0,1,1.679,14.9a1.779,1.779,0,0,1-.848.448l.027.994a1.761,1.761,0,0,1,1.36,1.717v.021a1.765,1.765,0,0,1-1.384,1.7v.446a.112.112,0,0,0,.11.11H4.291v-.58a.249.249,0,0,1,0-.052.361.361,0,0,1,.718.052v.58H18.4a.115.115,0,0,0,.112-.11v-.448a1.739,1.739,0,0,1-.87-.476,1.773,1.773,0,0,1-.515-1.227v-.041a1.748,1.748,0,0,1,.53-1.241h0a1.782,1.782,0,0,1,.858-.457v-.992a1.763,1.763,0,0,1-.829-.433l-.026-.022a1.749,1.749,0,0,1-.53-1.243v-.043a1.78,1.78,0,0,1,.515-1.227,1.741,1.741,0,0,1,.876-.465v-.6a.112.112,0,0,0-.034-.077.1.1,0,0,0-.077-.033ZM4.291,13.989a.361.361,0,0,0,.718.053.266.266,0,0,0,0-.053v-.721a.361.361,0,0,0-.718-.052.249.249,0,0,0,0,.052Zm0,2.165a.361.361,0,0,0,.718.052.249.249,0,0,0,0-.052v-.721a.361.361,0,0,0-.718-.053.266.266,0,0,0,0,.053Zm0,2.163a.361.361,0,0,0,.718.053.28.28,0,0,0,0-.053V17.6a.361.361,0,0,0-.718-.053.28.28,0,0,0,0,.053ZM9.57,7.45a.474.474,0,0,0,.185-.239.464.464,0,0,0-.687-.537l-.776.515a.466.466,0,0,0,.515.776l.776-.515ZM11.9,5.927a.45.45,0,0,0,.185-.239.464.464,0,0,0-.687-.537l-.778.515a.474.474,0,0,0-.191.239.464.464,0,0,0,.687.537l.776-.515Z" transform="translate(0.251 0.23)"/></svg>