<svg xmlns="http://www.w3.org/2000/svg" width="116" height="116" viewBox="0 0 116 116"><defs><style>.a{fill:#fff;}.b{fill:#9d9d9d;opacity:0.4;}</style></defs><g transform="translate(0 0)"><path class="a" d="M58,0a57.994,57.994,0,1,0,58,58A57.994,57.994,0,0,0,58,0Z" transform="translate(0 0)"/><path class="b" d="M157.94,130.172a84.9,84.9,0,0,0-14.226-8.609,14.685,14.685,0,0,1-8.38-15.391,1.572,1.572,0,0,1,.046-.3s13.358-9.043,11.509-17.857A8.789,8.789,0,0,0,147.916,88c5.891-.548,6.257-9.317.434-10.253-.046,0-.114-.023-.16-.023l-.183-.959c1.781-6.234,6.12-25.118-7.01-23.291,0,0-9.431-15.6-29.365-8.083C91.674,52.876,96.88,70.756,96.88,70.756l2.466,7.124c-5.366,1.324-4.864,9.613.845,10.139a9.2,9.2,0,0,0,1.05.023c-1.872,8.814,11.486,17.857,11.486,17.857.023.114.023.205.046.3a14.747,14.747,0,0,1-8.38,15.391,85.48,85.48,0,0,0-14.226,8.609,18.344,18.344,0,0,0-4.567,4.727,58.071,58.071,0,0,0,76.884-.046A18.154,18.154,0,0,0,157.94,130.172Z" transform="translate(-66.054 -33.444)"/></g></svg>