<svg xmlns="http://www.w3.org/2000/svg" width="88.405" height="66" viewBox="0 0 88.405 66"><defs><style>.a{fill:#fff;}</style></defs><path class="a" d="M82.6,38.49a4.23,4.23,0,0,0,.162-1.149v-9c0-7.794-21.321-12-41.381-12S0,20.546,0,28.34a4.216,4.216,0,0,0,.12.988A1.226,1.226,0,0,0,0,29.84v7.5c0,2.493,2.185,4.619,5.809,6.358a4.131,4.131,0,0,0-.166,1.142,4.218,4.218,0,0,0,.12.988,1.224,1.224,0,0,0-.12.512v7.5a4.374,4.374,0,0,0,.487,1.981c-3.471,2.051-4.249,4.1-4.249,5.519a4.215,4.215,0,0,0,.12.988,1.223,1.223,0,0,0-.12.512v7.5c0,7.794,21.321,12,41.381,12s41.381-4.206,41.381-12v-9a4.335,4.335,0,0,0-.491-1.966C86.836,57.8,88.4,55.953,88.4,53.84v-9h0C88.4,43.188,87.367,40.788,82.6,38.49ZM14.045,22.338c7.274-1.933,16.982-3,27.336-3s20.062,1.065,27.336,3C75.156,24.05,79,26.294,79,28.34s-3.844,4.29-10.283,6c-7.274,1.933-16.982,3-27.336,3s-20.062-1.065-27.336-3c-6.439-1.712-10.283-3.955-10.283-6S7.606,24.05,14.045,22.338ZM79,33.576V37.34c0,1.733-2.766,3.607-7.524,5.18V36.742A30.54,30.54,0,0,0,79,33.576ZM67.714,37.718V43.6c-2.3.57-4.828,1.057-7.524,1.456v-5.97C62.841,38.708,65.371,38.253,67.714,37.718Zm-11.286,1.83v5.992c-2.413.27-4.93.474-7.524.608v-6C51.454,40.012,53.977,39.813,56.429,39.548Zm-11.286.743v6q-1.864.047-3.762.048t-3.762-.048v-6q1.883.049,3.762.049T45.143,40.291Zm-11.286-.146v6c-2.593-.134-5.111-.339-7.524-.608V39.548C28.785,39.813,31.308,40.012,33.857,40.145ZM22.571,39.081v5.97c-2.7-.4-5.221-.886-7.524-1.456V37.718C17.391,38.253,19.921,38.708,22.571,39.081ZM3.762,37.34V33.576a30.54,30.54,0,0,0,7.524,3.166v5.779C6.528,40.947,3.762,39.073,3.762,37.34ZM9.4,50.076a30.539,30.539,0,0,0,7.524,3.166V59.02C12.171,57.447,9.4,55.573,9.4,53.84Zm3.762,25.445c-4.757-1.573-7.524-3.447-7.524-5.181V66.576a30.54,30.54,0,0,0,7.524,3.166Zm11.286,2.531c-2.7-.4-5.221-.886-7.524-1.456V70.718c2.344.535,4.873.989,7.524,1.363Zm11.286,1.1c-2.593-.134-5.111-.339-7.524-.608V72.548c2.452.265,4.975.464,7.524.6Zm11.286.145q-1.864.047-3.762.048T39.5,79.292v-6q1.883.049,3.762.049t3.762-.049Zm11.286-.753c-2.413.27-4.93.474-7.524.608v-6c2.549-.132,5.072-.332,7.524-.6ZM69.6,76.6c-2.3.57-4.828,1.057-7.524,1.456v-5.97c2.651-.373,5.18-.828,7.524-1.362ZM80.881,70.34c0,1.733-2.766,3.607-7.524,5.18V69.742a30.539,30.539,0,0,0,7.524-3.166Zm-10.283-3c-7.274,1.933-16.982,3-27.336,3s-20.062-1.065-27.336-3c-6.439-1.712-10.283-3.955-10.283-6,0-1.174,1.275-2.248,2.631-3.058,6.3,4.937,22.916,7.558,38.75,7.558,12.662,0,25.824-1.676,33.812-4.872a1.71,1.71,0,0,1,.045.372C80.881,63.386,77.037,65.63,70.6,67.342ZM20.691,60.1V54.218c2.344.535,4.873.989,7.524,1.362v5.971C25.518,61.153,22.993,60.666,20.691,60.1ZM31.976,62.04V56.048c2.452.265,4.975.464,7.524.6v6C36.907,62.513,34.389,62.309,31.976,62.04Zm11.286.753v-6q1.883.049,3.762.049t3.762-.049v6q-1.863.047-3.762.048T43.262,62.792Zm11.286-.145v-6c2.549-.132,5.072-.332,7.524-.6v5.992C59.659,62.309,57.141,62.513,54.548,62.648Zm11.286-1.1V55.581c2.651-.373,5.18-.828,7.524-1.362V60.1C71.054,60.666,68.529,61.153,65.833,61.551Zm18.81-7.711c0,1.733-2.766,3.607-7.524,5.18V53.242a30.538,30.538,0,0,0,7.524-3.166Zm-10.283-3c-7.274,1.934-16.982,3-27.336,3s-20.062-1.065-27.336-3c-6.108-1.623-9.874-3.725-10.246-5.684C17.519,47.9,29.664,49.34,41.381,49.34c16.49,0,33.827-2.842,39.478-8.183,2.449,1.213,3.783,2.5,3.783,3.683C84.643,46.886,80.8,49.13,74.36,50.841Z" transform="translate(0 -16.34)"/></svg>