<svg xmlns="http://www.w3.org/2000/svg" width="33" height="33" viewBox="0 0 33 33"><defs><style>.a{fill:#fff;fill-rule:evenodd;}</style></defs><path class="a" d="M48.5,34.357a14.143,14.143,0,1,0,7.23,26.3,1.186,1.186,0,0,1,.414-.151,1.164,1.164,0,0,1,.259-.014,1.176,1.176,0,0,1,.283.052l5.628,1.769-1.769-5.628a1.182,1.182,0,0,1,.112-.957A14.146,14.146,0,0,0,48.5,34.357ZM32,48.5a16.5,16.5,0,1,1,30.949,7.973L64.9,62.685A1.768,1.768,0,0,1,62.685,64.9l-6.213-1.953A16.5,16.5,0,0,1,32,48.5Zm17.679-1.768v8.839a1.179,1.179,0,1,1-2.357,0V46.732a1.179,1.179,0,0,1,2.357,0ZM48.5,43.786a1.768,1.768,0,1,0-1.768-1.768A1.768,1.768,0,0,0,48.5,43.786Z" transform="translate(-32 -32)"/></svg>