<svg xmlns="http://www.w3.org/2000/svg" width="23.009" height="23.064" viewBox="0 0 23.009 23.064"><defs><style>.a{fill:#87c242;stroke:#87c242;stroke-width:0.3px;}</style></defs><g transform="translate(-4.55 -7.15)"><g transform="translate(4.7 7.3)"><path class="a" d="M16.055,30.064a11.382,11.382,0,1,1,11.355-11.41A11.37,11.37,0,0,1,16.055,30.064Zm0-21.657A10.275,10.275,0,1,0,26.3,18.71,10.259,10.259,0,0,0,16.055,8.408Z" transform="translate(-4.7 -7.3)"/></g><g transform="translate(15.501 11.786)"><path class="a" d="M24.754,17.449A.523.523,0,0,1,24.2,16.9v-.942a.554.554,0,1,1,1.108,0V16.9A.523.523,0,0,1,24.754,17.449Z" transform="translate(-24.2 -15.4)"/><path class="a" d="M24.754,31.679a.523.523,0,0,1-.554-.554V21.654a.554.554,0,1,1,1.108,0v9.471A.523.523,0,0,1,24.754,31.679Z" transform="translate(-24.2 -17.943)"/></g></g></svg>