<svg xmlns="http://www.w3.org/2000/svg" viewBox="0 0 19.034 19.034"><defs><style>.a{fill:#fff;}.b{fill:#87c242;}</style></defs><path class="a" d="M9.517,0A9.517,9.517,0,1,1,0,9.517,9.517,9.517,0,0,1,9.517,0Z"/><g transform="translate(3 3)"><g transform="translate(0)"><path class="b" d="M10.456,7.919a6.1,6.1,0,0,0-2.328-1.46,3.541,3.541,0,1,0-4.007,0A6.135,6.135,0,0,0,0,12.25H.957a5.168,5.168,0,0,1,10.336,0h.957A6.085,6.085,0,0,0,10.456,7.919ZM6.125,6.125A2.584,2.584,0,1,1,8.709,3.541,2.587,2.587,0,0,1,6.125,6.125Z" transform="translate(0)"/></g></g></svg>