<svg xmlns="http://www.w3.org/2000/svg" width="20.878" height="35.335" viewBox="0 0 20.878 35.335"><defs><style>.a{fill:#87c242;}</style></defs><g transform="translate(-292 -196.044)"><path class="a" d="M309,196.044l-13.088.013A3.907,3.907,0,0,0,292,199.929v27.315a4.141,4.141,0,0,0,3.907,4.136h.018l13.061-.145a3.937,3.937,0,0,0,3.876-3.938l.015-27.335A3.916,3.916,0,0,0,309,196.044Zm-7.692,1.912h2.313a1.1,1.1,0,1,1,0,2.192H301.3a1.1,1.1,0,0,1,0-2.192Zm-3.994.131a1.14,1.14,0,0,1,1.551,0,1.117,1.117,0,0,1,.318.778,1.1,1.1,0,1,1-1.868-.778Zm5.15,31.947a1.644,1.644,0,1,1,1.645-1.644A1.647,1.647,0,0,1,302.459,230.034Zm8.17-4.682a.548.548,0,0,1-.548.548H294.74a.548.548,0,0,1-.548-.548V202.339a.548.548,0,0,1,.548-.548h15.342a.548.548,0,0,1,.548.548Z"/></g></svg>