<svg class="logo-img" xmlns="http://www.w3.org/2000/svg" width="35.941" height="30.309" viewBox="0 0 35.941 30.309"><defs><style>.a{fill:#fff;stroke:#fff;stroke-width:0.3px;}</style></defs><g transform="translate(-1.859 -7.386)"><path class="a" d="M36.517,52.1a.509.509,0,0,1-.509-.509V37.7a.509.509,0,1,1,1.018,0V50.895l12.265-3.9V38.307a.509.509,0,1,1,1.018,0v9.057a.509.509,0,0,1-.356.485L36.669,52.075a.514.514,0,0,1-.152.025Z" transform="translate(-16.689 -14.555)"/><path class="a" d="M40.748,37.2a.509.509,0,0,1-.36-.149l-4.226-4.226a.509.509,0,0,1,.167-.831l13.283-5.438a.509.509,0,0,1,.569.129l4.025,4.429a.509.509,0,0,1-.187.815L40.936,37.163A.509.509,0,0,1,40.748,37.2Zm-3.325-4.556,3.448,3.448,12.09-4.836-3.292-3.621Z" transform="translate(-16.692 -9.315)"/><path class="a" d="M15.6,37.2a.509.509,0,0,1-.189-.037L2.331,31.926a.509.509,0,0,1-.187-.815l4.025-4.429a.509.509,0,0,1,.569-.129L20.022,31.99a.509.509,0,0,1,.167.831l-4.225,4.225A.509.509,0,0,1,15.6,37.2ZM3.39,31.253l12.09,4.836,3.448-3.447L6.682,27.633Z" transform="translate(0 -9.313)"/><path class="a" d="M23.707,52.1a.514.514,0,0,1-.153-.024L10.27,47.851a.509.509,0,0,1-.356-.485V38.307a.509.509,0,1,1,1.018,0v8.685L23.2,50.9V37.7a.509.509,0,0,1,1.018,0V51.591A.509.509,0,0,1,23.707,52.1Z" transform="translate(-3.879 -14.555)"/><path class="a" d="M49.8,18.222a.509.509,0,0,1-.192-.038L36.327,12.75a.509.509,0,0,1-.167-.831l4.225-4.225a.509.509,0,0,1,.549-.113l13.084,5.236a.509.509,0,0,1,.187.815L50.18,18.06a.509.509,0,0,1-.379.162ZM37.421,12.1l12.246,5.009,3.291-3.62L40.868,8.65Z" transform="translate(-16.69)"/><path class="a" d="M6.545,18.223a.509.509,0,0,1-.377-.166L2.144,13.632a.509.509,0,0,1,.187-.815L15.415,7.583a.509.509,0,0,1,.549.113l4.225,4.225a.509.509,0,0,1-.167.831L6.74,18.186a.509.509,0,0,1-.195.038ZM3.389,13.489l3.292,3.621L18.926,12.1,15.48,8.65Z" transform="translate(0 -0.001)"/></g></svg>