<svg xmlns="http://www.w3.org/2000/svg" width="40.589" height="40.58" viewBox="0 0 40.589 40.58"><defs><style>.a{fill:#37c673;}</style></defs><path class="a" d="M101,89.2a12.1,12.1,0,1,0,12.1,12.1A12.119,12.119,0,0,0,101,89.2Zm6.071,9.2-7.305,6.89a.71.71,0,0,1-.507.2.718.718,0,0,1-.525-.221l-3.823-3.924a.736.736,0,0,1,1.05-1.032l3.316,3.408,6.78-6.393a.736.736,0,0,1,1.013,1.069Zm0,0" transform="translate(-80.709 -81.01)"/><path class="a" d="M37.678,25.008,40.589,20.6l-2.911-4.413a.745.745,0,0,1-.12-.442l.295-5.288L33.145,8.067a.728.728,0,0,1-.322-.322L30.446,3.037l-5.288.295a.742.742,0,0,1-.442-.12L20.294.3,15.882,3.212a.742.742,0,0,1-.442.12l-5.288-.295L7.766,7.744a.728.728,0,0,1-.322.322L2.736,10.443l.295,5.288a.746.746,0,0,1-.119.442L0,20.6l2.911,4.412a.745.745,0,0,1,.119.442l-.295,5.288,4.708,2.377a.728.728,0,0,1,.322.322l2.377,4.708,5.288-.3h.037a.778.778,0,0,1,.406.12l4.412,2.911L24.7,37.969a.747.747,0,0,1,.442-.12l5.288.3L32.8,33.437a.728.728,0,0,1,.322-.322l4.707-2.377L37.54,25.45a.926.926,0,0,1,.138-.442ZM20.295,34.174A13.579,13.579,0,1,1,33.873,20.6,13.592,13.592,0,0,1,20.295,34.174Zm0,0" transform="translate(0 -0.301)"/></svg>