<svg xmlns="http://www.w3.org/2000/svg" width="48.77" height="39.837" viewBox="0 0 48.77 39.837"><defs><style>.a{fill:#fff;}</style></defs><g transform="translate(0 -0.002)"><path class="a" d="M28.84,1.688c4.271-.349,2.088,3.957,6.589,3.08L32.972,9.023c-4.342.921-2.56-3.588-6.581-3.1L28.84,1.688ZM24.367,9.813c.266,0,.528,0,.794,0l-.794-1.373-.794,1.373c.266,0,.528,0,.794,0Zm1.659.012a72.843,72.843,0,0,1,15.246,1.687c4.5,1.088,7.319,2.7,7.454,4.576a.707.707,0,0,1,.044.242V34.108a.675.675,0,0,1-.286.556c-3.465,2.945-9.725,4.449-16.615,4.965A86.2,86.2,0,0,1,7.18,37.8a26.294,26.294,0,0,1-4.549-1.5,5.537,5.537,0,0,1-2.477-1.85.663.663,0,0,1-.1-.349h0V16.715a1.965,1.965,0,0,1-.06-.48c0-1.941,2.85-3.6,7.462-4.719A72.811,72.811,0,0,1,22.708,9.829L23.938,7.7l-3.66-6.339.028-.016A.672.672,0,0,1,19.977.092h0a.669.669,0,0,1,.917.246.677.677,0,0,1,0,.667l.028-.016,3.441,5.962L27.808.989l.028.016a.677.677,0,0,1,0-.667.671.671,0,1,1,.587,1.008l.028.016L24.8,7.7l1.23,2.127ZM19.894,1.688c-4.267-.349-2.088,3.957-6.589,3.08l2.457,4.255c4.342.921,2.56-3.588,6.581-3.1L19.894,1.688Zm4.473,14.547q1.3,0,2.556.032l2.834-4.93c-1.731-.1-3.533-.151-5.39-.151-1.723,0-3.4.044-5.013.131l2.933,4.938c.683-.012,1.377-.02,2.08-.02Zm4.1.079c2.6.1,4.973.306,6.966.58l5.124-4.144a62.794,62.794,0,0,0-9.284-1.318l-2.806,4.882Zm8.784.869c2.759.508,4.442,1.179,4.442,1.913a.6.6,0,0,1-.151.377c3.612-.933,5.819-2.08,5.819-3.243,0-1.088-1.937-2.163-5.148-3.06l-4.961,4.013ZM7.192,19.478a.6.6,0,0,1-.151-.377c0-.778,1.881-1.484,4.938-2l-5.1-4.025c-3.425.917-5.509,2.032-5.509,3.159a.906.906,0,0,0,.016.179.861.861,0,0,1,.032.119c.337,1.056,2.465,2.088,5.771,2.945Zm6.644-2.651c2-.254,4.338-.437,6.887-.528l-2.9-4.89a65.04,65.04,0,0,0-9.252,1.254L13.8,16.791a.3.3,0,0,0,.036.036Zm16.19,11.566a2.092,2.092,0,0,1,.242.976v3.469a55.4,55.4,0,0,0,10.189-1.5A25.578,25.578,0,0,0,47.4,28.571V24.32C43,26.75,36.667,28.008,30.027,28.393Zm.242,5.815v4.156c.5-.028,1-.06,1.5-.1h0c6.5-.484,12.372-1.846,15.631-4.473v-3.64a28.359,28.359,0,0,1-6.6,2.5,56.849,56.849,0,0,1-10.491,1.548Zm-4.858,4.267V33.759a.806.806,0,0,0-.806-.806h0a.806.806,0,0,0-.806.806v4.688c.536.016,1.076.024,1.611.028ZM18.945,38.2V34.1h-.052A70.422,70.422,0,0,1,7.756,32.41a28.037,28.037,0,0,1-6.327-2.247V33.9A5.077,5.077,0,0,0,3.2,35.069,25.447,25.447,0,0,0,7.51,36.482,73.366,73.366,0,0,0,18.945,38.2Zm0-5.47V29.369a2.076,2.076,0,0,1,.3-1.076c-7.422-.54-14.154-2.008-17.81-3.965v4.251a23.481,23.481,0,0,0,6.652,2.5,68.126,68.126,0,0,0,10.86,1.655ZM1.429,22.753c4.08,2.6,13.976,4.4,24.01,4.4,8.391,0,16.825-1.27,21.962-4.414v-4.3a16.7,16.7,0,0,1-6.128,2.516,75.214,75.214,0,0,1-16.9,1.7,75.214,75.214,0,0,1-16.9-1.7,17.127,17.127,0,0,1-6.033-2.441v4.239Z"/></g></svg>