<svg xmlns="http://www.w3.org/2000/svg" width="90" height="90" viewBox="0 0 90 90"><defs><style>.a{fill:#fff;opacity:0.1;}.b{fill:#9d9d9d;opacity:0.4;}</style></defs><path class="a" d="M45,0A45,45,0,1,0,90,45,45,45,0,0,0,45,0Z"/><path class="b" d="M141.726,110.71a65.871,65.871,0,0,0-11.037-6.679,11.394,11.394,0,0,1-6.5-11.941,1.219,1.219,0,0,1,.035-.23S134.586,84.843,133.151,78a6.817,6.817,0,0,0,.8-.018c4.571-.425,4.854-7.228.337-7.955-.035,0-.089-.018-.124-.018l-.142-.744c1.382-4.837,4.748-19.488-5.439-18.071,0,0-7.317-12.1-22.783-6.272C90.313,50.739,94.352,64.611,94.352,64.611l1.913,5.528C92.1,71.166,92.492,77.6,96.921,78a7.141,7.141,0,0,0,.815.018c-1.453,6.839,8.911,13.854,8.911,13.854.018.089.018.159.035.23a11.442,11.442,0,0,1-6.5,11.941,66.321,66.321,0,0,0-11.037,6.679,14.233,14.233,0,0,0-3.543,3.667,45.055,45.055,0,0,0,59.652-.035A14.085,14.085,0,0,0,141.726,110.71Z" transform="translate(-70.435 -35.662)"/></svg>