<svg xmlns="http://www.w3.org/2000/svg" width="34.958" height="32.5" viewBox="0 0 34.958 32.5"><defs><style>.a{fill:#37c673;}</style></defs><g transform="translate(0 0)"><path class="a" d="M179.088,205.7h-.014a.684.684,0,0,0,0,1.368h.014a.684.684,0,1,0,0-1.368Zm0,0" transform="translate(-166.21 -191.658)"/><path class="a" d="M32.351,12.723H30.418V10.159A2.474,2.474,0,1,0,27.357,7.1h-1.6V2.611A2.613,2.613,0,0,0,23.144,0H2.61A2.613,2.613,0,0,0,0,2.611v14a2.613,2.613,0,0,0,2.609,2.61H9.376l-.448,2.376H8.14a.684.684,0,1,0,0,1.368h4.054v1.959a2.474,2.474,0,1,0,3.061,3.062h5.807v1.909A2.611,2.611,0,0,0,23.669,32.5h8.682a2.611,2.611,0,0,0,2.607-2.608V15.332a2.611,2.611,0,0,0-2.607-2.608ZM33.59,28.69H22.43V16.4h3.888l.479.511a.683.683,0,0,0,.5.216H28.63a.684.684,0,0,0,.53-.252l.388-.475H33.59ZM29.734,6.675a1.107,1.107,0,1,1-1.106,1.107,1.107,1.107,0,0,1,1.106-1.107ZM25.753,8.465h1.6a2.483,2.483,0,0,0,1.693,1.694v2.564h-3.3Zm6.6,5.626a1.241,1.241,0,0,1,1.2.942h-4.33a.684.684,0,0,0-.53.252l-.387.475h-.714l-.479-.511a.684.684,0,0,0-.5-.216H22.467c.005-.021.01-.041.016-.062s.012-.032.017-.048a1.241,1.241,0,0,1,1.169-.833ZM2.61,17.849a1.243,1.243,0,0,1-1.242-1.242V15.413h8.767a.684.684,0,1,0,0-1.368H1.368V2.611A1.243,1.243,0,0,1,2.61,1.368H23.144a1.244,1.244,0,0,1,1.242,1.242V12.723h-.717A2.609,2.609,0,0,0,21.4,14.045H15.594a.684.684,0,1,0,0,1.368h5.468v2.436H2.61Zm7.711,3.744.448-2.376h4.218l.449,2.376Zm3.662,5.724a1.107,1.107,0,1,1,0-.038c0,.006,0,.013,0,.019s0,.013,0,.019Zm1.272-.7a2.483,2.483,0,0,0-1.693-1.694V22.962h4.052a.684.684,0,0,0,0-1.368h-.787l-.449-2.376h4.684v7.4Zm17.1,4.517H23.669a1.241,1.241,0,0,1-1.227-1.074H33.578a1.241,1.241,0,0,1-1.227,1.074Zm0,0" transform="translate(0)"/></g></svg>