<svg xmlns="http://www.w3.org/2000/svg" width="43" height="29.823" viewBox="0 0 43 29.823"><defs><style>.a{fill:#87c242;}</style></defs><g transform="translate(-8 -80)"><path class="a" d="M48.573,89.016h-.347V82.427A2.43,2.43,0,0,0,45.8,80H13.2a2.43,2.43,0,0,0-2.427,2.427v10.75h-.347A2.43,2.43,0,0,0,8,95.6V107.4a2.43,2.43,0,0,0,2.427,2.427h6.242A2.43,2.43,0,0,0,19.1,107.4v-2.427h6.047l-.347,1.387H23.258a.694.694,0,0,0-.694.694v2.081a.694.694,0,0,0,.694.694H35.742a.694.694,0,0,0,.694-.694v-2.081a.694.694,0,0,0-.694-.694H34.2l-.347-1.387h3.273V107.4a2.43,2.43,0,0,0,2.427,2.427h9.016A2.43,2.43,0,0,0,51,107.4V91.444A2.43,2.43,0,0,0,48.573,89.016ZM17.71,107.4a1.041,1.041,0,0,1-1.04,1.04H10.427a1.041,1.041,0,0,1-1.04-1.04V95.6a1.041,1.041,0,0,1,1.04-1.04h.54l.536,1.606a.694.694,0,0,0,.658.474h2.774a.694.694,0,0,0,.658-.474l.536-1.606h.54a1.041,1.041,0,0,1,1.04,1.04ZM12.43,94.565h2.237l-.231.694H12.662Zm22.618,13.177v.694h-11.1v-.694Zm-8.821-1.387.347-1.387h5.852l.347,1.387Zm10.9-2.774H19.1v-2.774H37.129Zm0-12.137v7.976H19.1V95.6a2.43,2.43,0,0,0-2.427-2.427H12.161V82.427a1.041,1.041,0,0,1,1.04-1.04H45.8a1.041,1.041,0,0,1,1.04,1.04v6.589H39.556A2.43,2.43,0,0,0,37.129,91.444Zm8.054-1.04-.231.694H43.178l-.231-.694Zm4.43,16.992a1.041,1.041,0,0,1-1.04,1.04H39.556a1.041,1.041,0,0,1-1.04-1.04V91.444a1.041,1.041,0,0,1,1.04-1.04h1.927l.536,1.606a.694.694,0,0,0,.658.474h2.774a.694.694,0,0,0,.658-.474l.536-1.606h1.927a1.041,1.041,0,0,1,1.04,1.04Z"/><path class="a" d="M403.468,384h-2.774a.694.694,0,0,0,0,1.387h2.774a.694.694,0,1,0,0-1.387Z" transform="translate(-358.016 -277.645)"/><path class="a" d="M51.468,384H48.694a.694.694,0,1,0,0,1.387h2.774a.694.694,0,1,0,0-1.387Z" transform="translate(-36.532 -277.645)"/><path class="a" d="M242.081,328h-1.387a.694.694,0,1,0,0,1.387h1.387a.694.694,0,0,0,0-1.387Z" transform="translate(-211.887 -226.5)"/></g></svg>