<svg xmlns="http://www.w3.org/2000/svg" width="29" height="28.993" viewBox="0 0 29 28.993"><defs><style>.a{fill:#87c242;}</style></defs><g transform="translate(0 -0.301)"><path class="a" d="M97.548,89.2a8.649,8.649,0,1,0,8.648,8.649A8.659,8.659,0,0,0,97.548,89.2Zm4.337,6.575-5.22,4.923a.507.507,0,0,1-.362.145.513.513,0,0,1-.375-.158l-2.731-2.8a.526.526,0,0,1,.75-.737l2.369,2.435,4.844-4.568a.526.526,0,0,1,.724.764Zm0,0" transform="translate(-83.048 -83.047)"/><path class="a" d="M26.92,17.953,29,14.8l-2.08-3.153a.532.532,0,0,1-.086-.316l.211-3.778-3.363-1.7a.52.52,0,0,1-.23-.23l-1.7-3.363-3.778.211a.53.53,0,0,1-.316-.086L14.5.3l-3.153,2.08a.53.53,0,0,1-.316.086L7.253,2.256l-1.7,3.363a.52.52,0,0,1-.23.23l-3.363,1.7.211,3.778a.533.533,0,0,1-.085.316L0,14.8l2.08,3.153a.532.532,0,0,1,.085.316l-.211,3.778,3.363,1.7a.52.52,0,0,1,.23.23l1.7,3.363,3.778-.211h.026a.556.556,0,0,1,.29.086l3.153,2.08,3.153-2.08a.534.534,0,0,1,.316-.086l3.778.211,1.7-3.363a.52.52,0,0,1,.23-.23l3.363-1.7-.211-3.778a.662.662,0,0,1,.1-.316ZM14.5,24.5a9.7,9.7,0,1,1,9.7-9.7A9.711,9.711,0,0,1,14.5,24.5Zm0,0" transform="translate(0)"/></g></svg>