<svg xmlns="http://www.w3.org/2000/svg" width="33.565" height="28.309" viewBox="0 0 33.565 28.309"><defs><style>.a{fill:#fff;stroke:#fff;stroke-width:0.3px;}</style></defs><g transform="translate(-1.859 -7.386)"><path class="a" d="M36.483,51.106a.475.475,0,0,1-.475-.475V37.669a.475.475,0,0,1,.95,0V49.981l11.447-3.643V38.233a.475.475,0,1,1,.95,0v8.453a.475.475,0,0,1-.333.453l-12.4,3.944a.48.48,0,0,1-.142.024Z" transform="translate(-17.843 -15.562)"/><path class="a" d="M40.432,36.488a.475.475,0,0,1-.336-.139l-3.944-3.944a.475.475,0,0,1,.156-.776l12.4-5.075a.475.475,0,0,1,.531.12l3.757,4.134a.475.475,0,0,1-.175.76L40.608,36.454A.475.475,0,0,1,40.432,36.488Zm-3.1-4.253,3.218,3.218L51.83,30.94,48.758,27.56Z" transform="translate(-17.846 -9.959)"/><path class="a" d="M14.7,36.486a.475.475,0,0,1-.177-.034L2.31,31.565a.475.475,0,0,1-.175-.76l3.757-4.134a.475.475,0,0,1,.531-.12l12.4,5.074a.475.475,0,0,1,.156.776l-3.944,3.944A.475.475,0,0,1,14.7,36.486ZM3.3,30.937l11.284,4.514L17.8,32.234,6.371,27.558Z" transform="translate(0 -9.957)"/><path class="a" d="M22.788,51.106a.479.479,0,0,1-.143-.022l-12.4-3.944a.475.475,0,0,1-.333-.453V38.233a.475.475,0,1,1,.95,0v8.106l11.448,3.643V37.669a.475.475,0,0,1,.95,0V50.631A.475.475,0,0,1,22.788,51.106Z" transform="translate(-4.148 -15.562)"/><path class="a" d="M48.882,17.51a.475.475,0,0,1-.18-.035L36.306,12.4a.475.475,0,0,1-.156-.776l3.944-3.944a.475.475,0,0,1,.513-.105l12.211,4.886a.475.475,0,0,1,.175.76l-3.757,4.134a.475.475,0,0,1-.354.152ZM37.327,11.794l11.43,4.676,3.071-3.379L40.544,8.577Z" transform="translate(-17.844 0)"/><path class="a" d="M6.243,17.512a.475.475,0,0,1-.352-.155l-3.757-4.13a.475.475,0,0,1,.175-.76L14.521,7.58a.475.475,0,0,1,.513.105l3.944,3.944a.475.475,0,0,1-.156.776l-12.4,5.071a.475.475,0,0,1-.182.035ZM3.3,13.093l3.072,3.379L17.8,11.8l-3.217-3.22Z" transform="translate(0 -0.001)"/></g></svg>