<svg xmlns="http://www.w3.org/2000/svg" width="15.585" height="17.733" viewBox="0 0 15.585 17.733"><defs><style>.a{fill:#87c242 ;}</style></defs><g transform="translate(3.117 0)"><g transform="translate(0)"><path class="a" d="M125.676,0a4.676,4.676,0,1,0,4.676,4.676A4.681,4.681,0,0,0,125.676,0Z" transform="translate(-121)"/></g></g><g transform="translate(0 10.39)"><path class="a" d="M44.61,302.016A6.665,6.665,0,0,0,39.832,300H37.754a6.665,6.665,0,0,0-4.778,2.016A6.814,6.814,0,0,0,31,306.823a.519.519,0,0,0,.52.519H46.066a.519.519,0,0,0,.52-.519A6.814,6.814,0,0,0,44.61,302.016Z" transform="translate(-31 -300)"/></g></svg>