<svg xmlns="http://www.w3.org/2000/svg" viewBox="0 0 65.75 65.75"><defs><style>.cls-1{fill:#58595b;}.cls-2{fill:#d1d3d4;}</style></defs><g id="Elements"><path class="cls-1" d="M65.75,32.88A32.88,32.88,0,1,1,32.88,0,32.86,32.86,0,0,1,65.75,32.88Z"/><path class="cls-2" d="M40.49,31.5l-1-.58L25.93,23.08a.5.5,0,0,0-.7.06A5.72,5.72,0,0,1,20.6,24.5a5.89,5.89,0,0,1-5-3.62A6.28,6.28,0,0,1,20.42,12a6.22,6.22,0,0,1,6.89,4.13,5.83,5.83,0,0,1,.19,3.41c-.05.21.08.26.21.33l2.91,1.69q5.73,3.3,11.45,6.62a.46.46,0,0,0,.64-.07,5.83,5.83,0,0,1,4.43-1.4,5.74,5.74,0,0,1,4.54,2.48,6.2,6.2,0,0,1,1,4.32,6.09,6.09,0,0,1-3,4.75,6.29,6.29,0,0,1-7.27-.65c-.2-.18-.33-.1-.5,0L29.22,45.1c-.59.35-1.17.7-1.77,1-.16.09-.19.17-.15.36a6.1,6.1,0,1,1-6.94-4.77,5.86,5.86,0,0,1,5,1.4.33.33,0,0,0,.47,0L40.3,34.6a.27.27,0,0,0,.15-.35A5.82,5.82,0,0,1,40.49,31.5Z"/></g></svg>