<svg id="coin" xmlns="http://www.w3.org/2000/svg" width="18.138" height="16.5" viewBox="0 0 18.138 16.5">
  <path id="Path_51" data-name="Path 51" d="M15.2,327.514v2.037a1.6,1.6,0,0,1-.912,1.235c-.083.051-.171.1-.267.152a0,0,0,0,0,0,0c-.083.046-.171.088-.265.134a8.015,8.015,0,0,1-1.07.4l-.267.08h0l-.265.072c-.337.086-.693.163-1.07.227-.088.016-.176.032-.267.046h0c-.088.013-.174.029-.265.04-.345.051-.7.091-1.07.123-.088.008-.177.016-.267.021h0c-.088.008-.174.013-.265.019-.348.021-.706.035-1.07.037-.088,0-.176,0-.267,0h0c-.091,0-.176,0-.265,0-.364,0-.722-.016-1.07-.037-.091-.005-.179-.011-.267-.019h0c-.091-.005-.176-.013-.265-.021-.369-.032-.725-.072-1.07-.123-.091-.011-.179-.027-.267-.04h0c-.091-.013-.176-.029-.265-.046-.377-.064-.733-.142-1.07-.227l-.267-.072h0l-.265-.08a8.015,8.015,0,0,1-1.07-.4c-.094-.043-.182-.088-.267-.136a0,0,0,0,1,0,0,2.518,2.518,0,0,1-.265-.15A1.6,1.6,0,0,1,0,329.551v-2.037Z" transform="translate(0 -315.648)" fill="#f6c358"/>
  <path id="Path_52" data-name="Path 52" d="M15.2,263.077a1.581,1.581,0,0,1-.912,1.23,2.661,2.661,0,0,1-.27.158c-.083.048-.171.091-.265.136a8.4,8.4,0,0,1-1.07.4l-.267.08h0l-.265.072c-.337.086-.693.163-1.07.227-.088.016-.176.032-.267.045h0c-.088.013-.174.029-.265.04-.345.051-.7.091-1.07.123-.088.008-.177.016-.267.021h0c-.088.008-.174.013-.265.019-.348.021-.706.035-1.07.037-.088,0-.176,0-.267,0h0c-.091,0-.176,0-.265,0-.364,0-.722-.016-1.07-.037-.091-.005-.179-.011-.267-.019h0c-.091-.005-.176-.013-.265-.021-.369-.032-.725-.072-1.07-.123-.091-.011-.179-.027-.267-.04h0c-.091-.013-.176-.029-.265-.045-.377-.064-.733-.142-1.07-.227l-.267-.072h0l-.265-.08a8.011,8.011,0,0,1-1.07-.4c-.094-.043-.182-.088-.267-.136a0,0,0,0,1,0,0,2.546,2.546,0,0,1-.265-.15A1.6,1.6,0,0,1,0,263.077c0-1.433,3.4-2.6,7.6-2.6S15.2,261.644,15.2,263.077Z" transform="translate(0 -251.211)" fill="#fcd462"/>
  <path id="Path_53" data-name="Path 53" d="M25.581,282.956c-.076,0-.148,0-.222,0-.35,0-.7-.015-1.047-.036-.085-.005-.166-.01-.247-.017l-.032,0H24.02c-.072,0-.14-.011-.21-.017-.385-.034-.721-.072-1.041-.119-.074-.009-.125-.017-.176-.026l-.144-.022-.19-.034c-.345-.059-.676-.129-1.021-.217l-.249-.067-.254-.076a7.644,7.644,0,0,1-.824-.3v0l-.4-.2-.13-.073h-.005l-.059-.036c-.432-.271-.582-.506-.582-.626,0-.659,2.61-1.871,6.873-1.871s6.871,1.211,6.871,1.871c0,.119-.149.352-.57.614a2.087,2.087,0,0,1-.211.125l-.04.021c-.066.038-.137.072-.211.108a7.727,7.727,0,0,1-.974.367l-.251.075-.254.069c-.338.086-.669.156-1.005.213l-.2.036-.147.023c-.048.008-.1.016-.146.022-.342.05-.678.089-1.048.121-.077.007-.151.014-.227.019l-.045,0c-.081.007-.159.012-.242.017-.353.022-.7.034-1.032.036-.091,0-.167,0-.243,0Z" transform="translate(-18.006 -269.219)" fill="#f6c358"/>
  <g id="Group_16149" data-name="Group 16149" transform="translate(0.914 13.096)">
    <path id="Path_54" data-name="Path 54" d="M24.145,359.7v2.037c-.094-.043-.182-.088-.267-.136a0,0,0,0,1,0,0,2.5,2.5,0,0,1-.265-.15v-2.037a2.529,2.529,0,0,0,.265.15,0,0,0,0,0,0,0C23.963,359.609,24.051,359.654,24.145,359.7Z" transform="translate(-23.61 -359.403)" fill="#dc8744"/>
    <path id="Path_55" data-name="Path 55" d="M65.566,377.44v2.037l-.267-.072h0l-.265-.08v-2.037l.265.08h0C65.384,377.392,65.475,377.416,65.566,377.44Z" transform="translate(-63.427 -376.59)" fill="#dc8744"/>
    <path id="Path_56" data-name="Path 56" d="M106.986,387.177v2.037c-.091-.011-.179-.027-.267-.04h0c-.091-.013-.176-.029-.265-.046v-2.037c.088.016.174.032.265.045h0C106.807,387.15,106.895,387.166,106.986,387.177Z" transform="translate(-103.242 -386.013)" fill="#dc8744"/>
    <path id="Path_57" data-name="Path 57" d="M148.407,392.516v2.038c-.091-.005-.179-.011-.267-.019h0c-.091-.005-.176-.013-.265-.021v-2.037c.088.008.174.016.265.021h0C148.228,392.505,148.316,392.511,148.407,392.516Z" transform="translate(-143.059 -391.19)" fill="#dc8744"/>
    <path id="Path_58" data-name="Path 58" d="M189.827,394.477v2.037c-.088,0-.176,0-.267,0h0c-.091,0-.176,0-.265,0v-2.037c.088,0,.174,0,.265,0h0C189.65,394.48,189.739,394.48,189.827,394.477Z" transform="translate(-182.875 -393.113)" fill="#dc8744"/>
    <path id="Path_59" data-name="Path 59" d="M231.248,392.476v2.037c-.088.008-.176.016-.267.021h0c-.088.008-.174.013-.265.019v-2.037c.091-.005.176-.011.265-.019h0C231.071,392.492,231.159,392.484,231.248,392.476Z" transform="translate(-222.692 -391.19)" fill="#dc8744"/>
    <path id="Path_60" data-name="Path 60" d="M272.668,387.091v2.037c-.088.016-.176.032-.267.046h0c-.088.013-.174.029-.265.04v-2.037c.091-.011.176-.027.265-.04h0C272.491,387.123,272.579,387.107,272.668,387.091Z" transform="translate(-262.507 -386.013)" fill="#dc8744"/>
    <path id="Path_61" data-name="Path 61" d="M314.089,377.288v2.037l-.267.08h0l-.265.072V377.44l.265-.072h0Z" transform="translate(-302.324 -376.59)" fill="#dc8744"/>
    <path id="Path_62" data-name="Path 62" d="M355.509,359.27v2.043c-.083.051-.171.1-.267.152a0,0,0,0,0,0,0c-.083.046-.171.088-.265.134v-2.037c.094-.045.182-.088.265-.136A2.668,2.668,0,0,0,355.509,359.27Z" transform="translate(-342.14 -359.27)" fill="#dc8744"/>
  </g>
  <path id="Path_63" data-name="Path 63" d="M91.172,247.735v2.037a1.6,1.6,0,0,1-.912,1.235c-.083.051-.171.1-.267.152a0,0,0,0,0,0,0c-.083.045-.171.088-.265.134a8.015,8.015,0,0,1-1.07.4l-.267.08h0l-.265.072c-.337.086-.693.163-1.07.227-.088.016-.176.032-.267.045h0c-.088.013-.174.029-.265.04-.345.051-.7.091-1.07.123-.088.008-.176.016-.267.021h0c-.088.008-.174.013-.265.019-.348.021-.706.035-1.07.037-.088,0-.176,0-.267,0h0c-.091,0-.176,0-.265,0-.364,0-.722-.016-1.07-.037-.091-.005-.179-.011-.267-.019h0c-.091-.005-.176-.013-.265-.021-.369-.032-.725-.072-1.07-.123-.091-.011-.179-.027-.267-.04h0c-.091-.013-.176-.029-.265-.045-.377-.064-.733-.142-1.07-.227l-.267-.072h0l-.265-.08a8.016,8.016,0,0,1-1.07-.4c-.094-.043-.182-.088-.267-.136a0,0,0,0,1,0,0,2.512,2.512,0,0,1-.265-.15,1.6,1.6,0,0,1-.914-1.235v-2.037h15.2Z" transform="translate(-73.034 -238.959)" fill="#f6c358"/>
  <path id="Path_64" data-name="Path 64" d="M91.171,183.3a1.582,1.582,0,0,1-.912,1.23,2.653,2.653,0,0,1-.27.158c-.083.048-.171.091-.265.136a8.393,8.393,0,0,1-1.07.4l-.267.08h0l-.265.072c-.337.086-.693.163-1.07.227-.088.016-.176.032-.267.045h0c-.088.013-.174.029-.265.04-.345.051-.7.091-1.07.123-.088.008-.176.016-.267.021h0c-.088.008-.174.013-.265.019-.348.021-.706.035-1.07.037-.088,0-.176,0-.267,0h0c-.091,0-.176,0-.265,0-.364,0-.722-.016-1.07-.037-.091-.005-.179-.011-.267-.019h0c-.091-.005-.176-.013-.265-.021-.369-.032-.725-.072-1.07-.123-.091-.011-.179-.027-.267-.04h0c-.091-.013-.176-.029-.265-.045-.377-.064-.733-.142-1.07-.227l-.267-.072h0l-.265-.08a8.012,8.012,0,0,1-1.07-.4c-.094-.043-.182-.088-.267-.136a0,0,0,0,1,0,0,2.535,2.535,0,0,1-.265-.15,1.6,1.6,0,0,1-.914-1.235c0-1.433,3.4-2.6,7.6-2.6S91.171,181.866,91.171,183.3Z" transform="translate(-73.033 -174.523)" fill="#fcd462"/>
  <path id="Path_65" data-name="Path 65" d="M101.554,203.176c-.075,0-.147,0-.221,0-.352,0-.7-.015-1.047-.036-.085-.005-.166-.01-.246-.017l-.033,0h-.013c-.069,0-.134-.01-.2-.017-.395-.034-.731-.073-1.049-.12-.074-.009-.125-.017-.176-.026l-.144-.022-.19-.034c-.346-.059-.677-.129-1.021-.217l-.249-.067-.254-.076a7.645,7.645,0,0,1-.825-.3v0l-.4-.2-.128-.072h-.005l-.059-.037c-.431-.271-.582-.506-.582-.625,0-.66,2.61-1.871,6.873-1.871s6.871,1.211,6.871,1.871c0,.119-.149.352-.57.614a2.126,2.126,0,0,1-.211.125l-.039.021c-.066.038-.137.072-.211.108a7.685,7.685,0,0,1-.974.367l-.251.075-.254.069c-.336.085-.667.156-1.005.213l-.2.035-.148.023c-.048.008-.1.016-.146.022-.34.05-.676.088-1.048.121-.077.007-.151.014-.227.019l-.046,0c-.08.007-.158.012-.241.017-.351.022-.7.034-1.032.036-.091,0-.167,0-.243,0Z" transform="translate(-91.036 -192.528)" fill="#f6c358"/>
  <g id="Group_16150" data-name="Group 16150" transform="translate(3.857 10.006)">
    <path id="Path_66" data-name="Path 66" d="M100.117,279.918v2.037c-.094-.043-.182-.088-.267-.136a0,0,0,0,1,0,0,2.51,2.51,0,0,1-.265-.15v-2.037a2.521,2.521,0,0,0,.265.15,0,0,0,0,0,0,0C99.935,279.83,100.023,279.875,100.117,279.918Z" transform="translate(-99.582 -279.624)" fill="#dc8744"/>
    <path id="Path_67" data-name="Path 67" d="M141.538,297.661V299.7l-.267-.072h0l-.265-.08v-2.037l.265.08h0Z" transform="translate(-139.399 -296.811)" fill="#dc8744"/>
    <path id="Path_68" data-name="Path 68" d="M182.958,307.4v2.037c-.091-.011-.179-.027-.267-.04h0c-.091-.013-.176-.029-.265-.045v-2.037c.088.016.174.032.265.045h0C182.779,307.37,182.867,307.386,182.958,307.4Z" transform="translate(-179.214 -306.233)" fill="#dc8744"/>
    <path id="Path_69" data-name="Path 69" d="M224.379,312.736v2.037c-.091-.005-.179-.011-.267-.019h0c-.091-.005-.176-.013-.265-.021V312.7c.088.008.174.016.265.021h0C224.2,312.725,224.288,312.731,224.379,312.736Z" transform="translate(-219.031 -311.41)" fill="#dc8744"/>
    <path id="Path_70" data-name="Path 70" d="M265.8,314.7v2.037c-.088,0-.176,0-.267,0h0c-.091,0-.176,0-.265,0V314.7c.088,0,.174,0,.265,0h0C265.622,314.7,265.71,314.7,265.8,314.7Z" transform="translate(-258.847 -313.333)" fill="#dc8744"/>
    <path id="Path_71" data-name="Path 71" d="M307.22,312.7v2.037c-.088.008-.176.016-.267.021h0c-.088.008-.174.013-.265.019v-2.038c.091-.005.176-.011.265-.019h0C307.043,312.712,307.132,312.7,307.22,312.7Z" transform="translate(-298.664 -311.41)" fill="#dc8744"/>
    <path id="Path_72" data-name="Path 72" d="M348.64,307.311v2.037c-.088.016-.177.032-.267.045h0c-.088.013-.174.029-.265.04V307.4c.091-.011.176-.027.265-.04h0C348.463,307.343,348.551,307.327,348.64,307.311Z" transform="translate(-338.479 -306.233)" fill="#dc8744"/>
    <path id="Path_73" data-name="Path 73" d="M390.061,297.508v2.037l-.267.08h0l-.265.072V297.66l.265-.072h0Z" transform="translate(-378.296 -296.81)" fill="#dc8744"/>
    <path id="Path_74" data-name="Path 74" d="M431.481,279.49v2.043c-.083.051-.171.1-.267.152a0,0,0,0,0,0,0c-.083.045-.171.088-.265.134v-2.037c.094-.046.182-.088.265-.136A2.647,2.647,0,0,0,431.481,279.49Z" transform="translate(-418.112 -279.49)" fill="#dc8744"/>
  </g>
  <path id="Path_75" data-name="Path 75" d="M15.2,167.955v2.037a1.6,1.6,0,0,1-.912,1.235c-.083.051-.171.1-.267.152a0,0,0,0,0,0,0c-.083.045-.171.088-.265.134a8.011,8.011,0,0,1-1.07.4l-.267.08h0l-.265.072c-.337.086-.693.163-1.07.227-.088.016-.176.032-.267.045h0c-.088.013-.174.029-.265.04-.345.051-.7.091-1.07.123-.088.008-.177.016-.267.021h0c-.088.008-.174.013-.265.019-.348.021-.706.035-1.07.037-.088,0-.176,0-.267,0h0c-.091,0-.176,0-.265,0-.364,0-.722-.016-1.07-.037-.091-.005-.179-.011-.267-.019h0c-.091-.005-.176-.013-.265-.021-.369-.032-.725-.072-1.07-.123-.091-.011-.179-.027-.267-.04h0c-.091-.013-.176-.029-.265-.045-.377-.064-.733-.142-1.07-.227L2.786,172h0l-.265-.08a8.011,8.011,0,0,1-1.07-.4c-.094-.043-.182-.088-.267-.136a0,0,0,0,1,0,0,2.507,2.507,0,0,1-.265-.15A1.6,1.6,0,0,1,0,169.992v-2.037Z" transform="translate(0 -162.269)" fill="#f6c358"/>
  <path id="Path_76" data-name="Path 76" d="M15.2,103.518a1.582,1.582,0,0,1-.912,1.23,2.658,2.658,0,0,1-.27.158c-.083.048-.171.091-.265.136a8.4,8.4,0,0,1-1.07.4l-.267.08h0l-.265.072c-.337.086-.693.163-1.07.227-.088.016-.176.032-.267.045h0c-.088.013-.174.029-.265.04-.345.051-.7.091-1.07.123-.088.008-.177.016-.267.021h0c-.088.008-.174.013-.265.019-.348.021-.706.035-1.07.037-.088,0-.176,0-.267,0h0c-.091,0-.176,0-.265,0-.364,0-.722-.016-1.07-.037-.091-.005-.179-.011-.267-.019h0c-.091-.005-.176-.013-.265-.021-.369-.032-.725-.072-1.07-.123-.091-.011-.179-.027-.267-.04h0c-.091-.013-.176-.029-.265-.045-.377-.064-.733-.142-1.07-.227l-.267-.072h0l-.265-.08a8.022,8.022,0,0,1-1.07-.4c-.094-.043-.182-.088-.267-.136a0,0,0,0,1,0,0,2.532,2.532,0,0,1-.265-.15A1.6,1.6,0,0,1,0,103.518c0-1.433,3.4-2.6,7.6-2.6S15.2,102.085,15.2,103.518Z" transform="translate(0 -97.832)" fill="#fcd462"/>
  <path id="Path_77" data-name="Path 77" d="M25.583,123.4c-.076,0-.149,0-.223,0-.351,0-.7-.015-1.046-.036-.085-.005-.165-.01-.246-.017l-.033,0h-.013c-.069,0-.134-.011-.2-.017-.395-.034-.731-.073-1.049-.12-.073-.009-.124-.017-.174-.025l-.146-.022-.19-.034c-.345-.059-.676-.129-1.021-.217l-.25-.067-.253-.076a7.65,7.65,0,0,1-.825-.3v0l-.4-.2-.128-.072h0l-.059-.036c-.432-.271-.582-.506-.582-.626,0-.659,2.61-1.871,6.873-1.871s6.871,1.211,6.871,1.871c0,.119-.149.352-.57.615a2.134,2.134,0,0,1-.211.124l-.039.021c-.066.038-.137.072-.211.108a7.687,7.687,0,0,1-.974.367l-.251.075-.253.069c-.338.086-.669.156-1.006.214-.073.013-.141.026-.208.036l-.144.022c-.048.008-.1.016-.145.022-.34.05-.676.088-1.048.121-.077.007-.151.014-.227.019l-.046,0c-.081.007-.159.012-.242.017-.35.021-.7.034-1.032.036-.09,0-.166,0-.243,0Z" transform="translate(-18.006 -115.839)" fill="#f6c358"/>
  <g id="Group_16151" data-name="Group 16151" transform="translate(0.914 6.916)">
    <path id="Path_78" data-name="Path 78" d="M24.145,200.138v2.037c-.094-.043-.182-.088-.267-.136a0,0,0,0,1,0,0,2.507,2.507,0,0,1-.265-.15v-2.037a2.529,2.529,0,0,0,.265.15,0,0,0,0,0,0,0C23.963,200.049,24.051,200.095,24.145,200.138Z" transform="translate(-23.61 -199.844)" fill="#dc8744"/>
    <path id="Path_79" data-name="Path 79" d="M65.566,217.881v2.037l-.267-.072h0l-.265-.08v-2.037l.265.08h0C65.384,217.833,65.475,217.857,65.566,217.881Z" transform="translate(-63.427 -217.031)" fill="#dc8744"/>
    <path id="Path_80" data-name="Path 80" d="M106.986,227.617v2.037c-.091-.011-.179-.027-.267-.04h0c-.091-.013-.176-.029-.265-.045v-2.037c.088.016.174.032.265.045h0C106.807,227.59,106.895,227.606,106.986,227.617Z" transform="translate(-103.242 -226.453)" fill="#dc8744"/>
    <path id="Path_81" data-name="Path 81" d="M148.407,232.956v2.037c-.091-.005-.179-.011-.267-.019h0c-.091-.005-.176-.013-.265-.021v-2.037c.088.008.174.016.265.021h0C148.228,232.945,148.316,232.951,148.407,232.956Z" transform="translate(-143.059 -231.63)" fill="#dc8744"/>
    <path id="Path_82" data-name="Path 82" d="M189.827,234.918v2.037c-.088,0-.176,0-.267,0h0c-.091,0-.176,0-.265,0v-2.037c.088,0,.174,0,.265,0h0C189.65,234.921,189.739,234.921,189.827,234.918Z" transform="translate(-182.875 -233.554)" fill="#dc8744"/>
    <path id="Path_83" data-name="Path 83" d="M231.248,232.916v2.037c-.088.008-.176.016-.267.021h0c-.088.008-.174.013-.265.019v-2.037c.091-.005.176-.011.265-.019h0C231.071,232.932,231.159,232.924,231.248,232.916Z" transform="translate(-222.692 -231.63)" fill="#dc8744"/>
    <path id="Path_84" data-name="Path 84" d="M272.668,227.531v2.037c-.088.016-.176.032-.267.045h0c-.088.013-.174.029-.265.04v-2.037c.091-.011.176-.027.265-.04h0C272.491,227.563,272.579,227.547,272.668,227.531Z" transform="translate(-262.507 -226.453)" fill="#dc8744"/>
    <path id="Path_85" data-name="Path 85" d="M314.089,217.728v2.037l-.267.08h0l-.265.072V217.88l.265-.072h0Z" transform="translate(-302.324 -217.03)" fill="#dc8744"/>
    <path id="Path_86" data-name="Path 86" d="M355.509,199.71v2.043c-.083.051-.171.1-.267.152a0,0,0,0,0,0,0c-.083.046-.171.088-.265.134V200c.094-.045.182-.088.265-.136A2.662,2.662,0,0,0,355.509,199.71Z" transform="translate(-342.14 -199.71)" fill="#dc8744"/>
  </g>
  <path id="Path_87" data-name="Path 87" d="M91.172,88.175v2.037a1.6,1.6,0,0,1-.912,1.235c-.083.051-.171.1-.267.152a0,0,0,0,0,0,0c-.083.045-.171.088-.265.134a8.017,8.017,0,0,1-1.07.4l-.267.08h0l-.265.072c-.337.086-.693.163-1.07.227-.088.016-.176.032-.267.045h0c-.088.013-.174.029-.265.04-.345.051-.7.091-1.07.123-.088.008-.176.016-.267.021h0c-.088.008-.174.013-.265.019-.348.021-.706.035-1.07.037-.088,0-.176,0-.267,0h0c-.091,0-.176,0-.265,0-.364,0-.722-.016-1.07-.037-.091-.005-.179-.011-.267-.019h0c-.091-.005-.176-.013-.265-.021-.369-.032-.725-.072-1.07-.123-.091-.011-.179-.027-.267-.04h0c-.091-.013-.176-.029-.265-.045-.377-.064-.733-.142-1.07-.227l-.267-.072h0l-.265-.08a8.017,8.017,0,0,1-1.07-.4c-.094-.043-.182-.088-.267-.136a0,0,0,0,1,0,0,2.514,2.514,0,0,1-.265-.15,1.6,1.6,0,0,1-.914-1.235V88.175Z" transform="translate(-73.034 -85.579)" fill="#f6c358"/>
  <path id="Path_88" data-name="Path 88" d="M91.171,23.739a1.582,1.582,0,0,1-.912,1.23,2.658,2.658,0,0,1-.27.158c-.083.048-.171.091-.265.136a8.4,8.4,0,0,1-1.07.4l-.267.08h0l-.265.072c-.337.086-.693.163-1.07.227-.088.016-.176.032-.267.045h0c-.088.013-.174.029-.265.04-.345.051-.7.091-1.07.123-.088.008-.176.016-.267.021h0c-.088.008-.174.013-.265.019-.348.021-.706.035-1.07.037-.088,0-.176,0-.267,0h0c-.091,0-.176,0-.265,0-.364,0-.722-.016-1.07-.037-.091-.005-.179-.011-.267-.019h0c-.091-.005-.176-.013-.265-.021-.369-.032-.725-.072-1.07-.123-.091-.011-.179-.027-.267-.04h0c-.091-.013-.176-.029-.265-.045-.377-.064-.733-.142-1.07-.227l-.267-.072h0l-.265-.08a8.022,8.022,0,0,1-1.07-.4c-.094-.043-.182-.088-.267-.136a0,0,0,0,1,0,0,2.534,2.534,0,0,1-.265-.15,1.6,1.6,0,0,1-.914-1.235c0-1.433,3.4-2.6,7.6-2.6S91.171,22.306,91.171,23.739Z" transform="translate(-73.033 -21.143)" fill="#fcd462"/>
  <path id="Path_89" data-name="Path 89" d="M101.555,43.614c-.075,0-.147,0-.221,0-.352,0-.7-.015-1.047-.036-.085-.005-.166-.01-.246-.017l-.033,0h-.013c-.069,0-.134-.01-.2-.017-.394-.034-.73-.073-1.049-.12-.072-.009-.122-.017-.173-.025l-.147-.023-.191-.034c-.345-.059-.676-.129-1.021-.217l-.249-.067-.254-.076a7.655,7.655,0,0,1-.824-.3v0l-.4-.2-.128-.072h-.005l-.058-.036c-.432-.272-.583-.506-.583-.626,0-.659,2.61-1.871,6.873-1.871s6.871,1.211,6.871,1.871c0,.119-.149.352-.57.615a2.127,2.127,0,0,1-.211.124l-.039.021c-.067.039-.139.073-.215.11a7.724,7.724,0,0,1-.97.365l-.251.075-.253.069c-.338.086-.669.156-1.006.214-.074.013-.141.026-.209.036l-.146.022c-.047.008-.095.016-.144.022-.34.05-.676.088-1.047.121-.077.007-.151.014-.227.019l-.046,0c-.08.007-.158.012-.241.017-.351.022-.7.034-1.033.036-.09,0-.166,0-.243,0Z" transform="translate(-91.037 -39.147)" fill="#f6c358"/>
  <g id="Group_16152" data-name="Group 16152" transform="translate(3.857 3.826)">
    <path id="Path_90" data-name="Path 90" d="M100.117,120.358V122.4c-.094-.043-.182-.088-.267-.136a0,0,0,0,1,0,0,2.518,2.518,0,0,1-.265-.15v-2.037a2.532,2.532,0,0,0,.265.15,0,0,0,0,0,0,0C99.935,120.27,100.023,120.315,100.117,120.358Z" transform="translate(-99.582 -120.064)" fill="#dc8744"/>
    <path id="Path_91" data-name="Path 91" d="M141.538,138.1v2.037l-.267-.072h0l-.265-.08v-2.037l.265.08h0Z" transform="translate(-139.399 -137.251)" fill="#dc8744"/>
    <path id="Path_92" data-name="Path 92" d="M182.958,147.837v2.037c-.091-.011-.179-.027-.267-.04h0c-.091-.013-.176-.029-.265-.045v-2.037c.088.016.174.032.265.045h0C182.779,147.81,182.867,147.826,182.958,147.837Z" transform="translate(-179.214 -146.673)" fill="#dc8744"/>
    <path id="Path_93" data-name="Path 93" d="M224.379,153.176v2.037c-.091-.005-.179-.011-.267-.019h0c-.091-.005-.176-.013-.265-.021v-2.037c.088.008.174.016.265.021h0C224.2,153.165,224.288,153.171,224.379,153.176Z" transform="translate(-219.031 -151.85)" fill="#dc8744"/>
    <path id="Path_94" data-name="Path 94" d="M265.8,155.138v2.037c-.088,0-.176,0-.267,0h0c-.091,0-.176,0-.265,0v-2.037c.088,0,.174,0,.265,0h0C265.622,155.141,265.71,155.141,265.8,155.138Z" transform="translate(-258.847 -153.774)" fill="#dc8744"/>
    <path id="Path_95" data-name="Path 95" d="M307.22,153.137v2.037c-.088.008-.176.016-.267.021h0c-.088.008-.174.013-.265.019v-2.037c.091-.005.176-.011.265-.019h0C307.043,153.153,307.132,153.145,307.22,153.137Z" transform="translate(-298.664 -151.851)" fill="#dc8744"/>
    <path id="Path_96" data-name="Path 96" d="M348.64,147.752v2.037c-.088.016-.177.032-.267.045h0c-.088.013-.174.029-.265.04v-2.037c.091-.011.176-.027.265-.04h0C348.463,147.784,348.551,147.768,348.64,147.752Z" transform="translate(-338.479 -146.674)" fill="#dc8744"/>
    <path id="Path_97" data-name="Path 97" d="M390.061,137.949v2.037l-.267.08h0l-.265.072V138.1l.265-.072h0Z" transform="translate(-378.296 -137.251)" fill="#dc8744"/>
    <path id="Path_98" data-name="Path 98" d="M431.481,119.931v2.043c-.083.051-.171.1-.267.152a0,0,0,0,0,0,0c-.083.045-.171.088-.265.134v-2.037c.094-.045.182-.088.265-.136A2.658,2.658,0,0,0,431.481,119.931Z" transform="translate(-418.112 -119.931)" fill="#dc8744"/>
  </g>
</svg>
