<svg xmlns="http://www.w3.org/2000/svg" viewBox="0 0 65.75 65.75"><defs><style>.cls-1{fill:#58595b;}.cls-2{fill:#d1d3d4;}</style></defs><g id="Elements"><path class="cls-1" d="M65.75,32.88A32.88,32.88,0,1,1,32.88,0,32.86,32.86,0,0,1,65.75,32.88Z"/><path class="cls-2" d="M10.38,32.8A22.5,22.5,0,1,1,32.71,55.37,22.45,22.45,0,0,1,10.38,32.8Zm42.55.14a20.06,20.06,0,1,0-20.28,20A20,20,0,0,0,52.93,32.94Z"/><path class="cls-2" d="M30.22,45.34c-.39-.07-.79-.16-1.18-.27a13.4,13.4,0,0,1-7-4.77c-.49-.66-2.81-4.61-.56-4.49.58,0,1,.58,1.26,1.07,2.09,3.46,5.28,6.43,9.63,6.43a11.35,11.35,0,0,0,6-1.23c2.35-1.23,3.67-3.37,5.11-5.5a2.16,2.16,0,0,1,.51-.61.82.82,0,0,1,.75-.15c1.43.55-.49,3.71-1,4.39a11.39,11.39,0,0,1-4,3.49A15,15,0,0,1,30.22,45.34Z"/><path class="cls-2" d="M26.76,24.14A2.2,2.2,0,0,1,29,26.29a2.28,2.28,0,0,1-2.22,2.15,2.21,2.21,0,0,1-2.1-2.1A2.13,2.13,0,0,1,26.76,24.14Z"/><path class="cls-2" d="M38.91,28.44a2.27,2.27,0,0,1-2.12-2.25,2.2,2.2,0,0,1,2.29-2,2.08,2.08,0,0,1,2,2.14A2.19,2.19,0,0,1,38.91,28.44Z"/></g></svg>