<svg xmlns="http://www.w3.org/2000/svg" viewBox="0 0 69.65 69.65"><defs><style>.cls-1{fill:#7a3;}.cls-2{fill:#fff;}</style></defs><g id="Elements"><path class="cls-1" d="M34.83,69.65h0A34.83,34.83,0,1,1,69.65,34.83,34.82,34.82,0,0,1,34.83,69.65Z"/><path class="cls-2" d="M62.54,34.83A27.72,27.72,0,1,1,34.78,7.09,27.76,27.76,0,0,1,62.54,34.83ZM18.71,54c3.59-6.2,8.88-9.73,16.13-9.72S47.35,47.81,51,54a25.07,25.07,0,1,0-32.24,0Z"/><path class="cls-2" d="M34.8,42.31A10.52,10.52,0,1,1,45.34,31.9,10.52,10.52,0,0,1,34.8,42.31Z"/></g></svg>