<svg xmlns="http://www.w3.org/2000/svg" viewBox="0 0 80.9 80.9"><defs><style>.cls-1{fill:#39b54a;}.cls-2{fill:#fff;}</style></defs><g id="Elements"><circle class="cls-1" cx="40.45" cy="40.45" r="40.45"/><path class="cls-2" d="M40.06,42.09c1.72-.12,3.44-.29,5.16-.35,1.22,0,2.44-.17,3.66-.21.82,0,1.64-.11,2.46-.2.65-.06,1-.36.95-.89s-.31-.82-1-.87l-5-.34-15.41-1c-.68,0-1.35-.09-2-.12a.75.75,0,0,1-.77-.6c-1.07-3.67-2.18-7.34-3.22-11a3.66,3.66,0,0,1,1.35-4.11A3.77,3.77,0,0,1,30.57,22l17.08,8.64q6.2,3.14,12.38,6.27A4,4,0,0,1,60,44L46.65,50.79q-8,4.07-16.07,8.13a3.79,3.79,0,0,1-4.33-.39,3.68,3.68,0,0,1-1.34-4.12c1-3.68,2.14-7.35,3.21-11a.77.77,0,0,1,.77-.6l11.17-.73Z"/></g></svg>