<svg version="1.1" id="Layer_1" xmlns="http://www.w3.org/2000/svg" xmlns:xlink="http://www.w3.org/1999/xlink" x="0px" y="0px" viewBox="0 0 30 30" xml:space="preserve">
                                                               
                                                                   <path class="st0" fillStyle="white" d="M27,12.5L5.1,3.4c-1.3-0.6-2.9,0-3.4,1.1C1.5,5.1,1.3,5.9,1.5,6.4l1.9,7.8h9.5c0.4,0,0.8,0.4,0.8,0.8
                                                                       s-0.4,0.8-0.8,0.8H3.4l-1.9,7.6c-0.4,1.3,0.4,2.9,1.9,3.2c0.6,0.2,1.1,0.2,1.7-0.2L27,17.3c1.3-0.6,1.9-2.1,1.3-3.4
                                                                       C28.2,13.3,27.6,12.7,27,12.5L27,12.5z"></path>
                                                                   </svg>