<svg xmlns="http://www.w3.org/2000/svg" width="104.137" height="118.484" viewBox="0 0 104.137 118.484"><defs><style>.a{fill:#040f09;}</style></defs><g transform="translate(0 0)"><g transform="translate(20.827 0)"><path class="a" d="M152.241,0a31.241,31.241,0,1,0,31.241,31.241A31.276,31.276,0,0,0,152.241,0Z" transform="translate(-121)"/></g><g transform="translate(0 69.424)"><path class="a" d="M121.938,313.467A44.536,44.536,0,0,0,90.011,300H76.126A44.536,44.536,0,0,0,44.2,313.467,45.529,45.529,0,0,0,31,345.588a3.472,3.472,0,0,0,3.471,3.472h97.194a3.472,3.472,0,0,0,3.471-3.472A45.529,45.529,0,0,0,121.938,313.467Z" transform="translate(-31 -300)"/></g></g></svg>